<svg width="20" height="19" viewBox="0 0 20 19" fill="none" xmlns="http://www.w3.org/2000/svg">
<path d="M3.34999 3.63938C2.44999 2.99938 2.22999 1.75938 2.85999 0.849378C3.48999 -0.0506219 4.73999 -0.270622 5.64999 0.359378C6.54999 0.999378 6.76999 2.23938 6.13999 3.14938C5.49999 4.04938 4.25999 4.26938 3.34999 3.63938ZM14 16.9994H6.92999C5.44999 16.9994 4.18999 15.9194 3.96999 14.4594L1.99999 4.99938H-7.62939e-06L1.98999 14.7594C2.36999 17.1994 4.46999 18.9994 6.93999 18.9994H14V16.9994ZM14.23 12.9994H9.34999L8.31999 8.89938C9.89999 9.78938 11.6 10.4394 13.47 10.1194V7.98938C11.84 8.29938 10.03 7.71938 8.77999 6.73938L7.13999 5.46938C6.90999 5.28938 6.64999 5.16938 6.37999 5.08938C6.05999 4.99938 5.71999 4.96938 5.38999 5.02938H5.36999C4.13999 5.24938 3.31999 6.41938 3.52999 7.63938L4.87999 13.5594C5.15999 14.9794 6.38999 15.9994 7.82999 15.9994H14.68L18.5 18.9994L20 17.4994L14.23 12.9994Z" fill="#474747"/>
</svg>
