<svg width="18" height="19" viewBox="0 0 18 19" fill="none" xmlns="http://www.w3.org/2000/svg">
<path d="M12 9.00041V3.83041C12 3.30041 11.79 2.79041 11.41 2.42041L9.7 0.710413C9.60749 0.617709 9.4976 0.544162 9.37662 0.49398C9.25565 0.443799 9.12597 0.417969 8.995 0.417969C8.86403 0.417969 8.73435 0.443799 8.61338 0.49398C8.4924 0.544162 8.38251 0.617709 8.29 0.710413L6.59 2.41041C6.21 2.79041 6 3.30041 6 3.83041V5.00041H2C0.9 5.00041 0 5.90041 0 7.00041V17.0004C0 18.1004 0.9 19.0004 2 19.0004H16C17.1 19.0004 18 18.1004 18 17.0004V11.0004C18 9.90041 17.1 9.00041 16 9.00041H12ZM4 17.0004H2V15.0004H4V17.0004ZM4 13.0004H2V11.0004H4V13.0004ZM4 9.00041H2V7.00041H4V9.00041ZM10 17.0004H8V15.0004H10V17.0004ZM10 13.0004H8V11.0004H10V13.0004ZM10 9.00041H8V7.00041H10V9.00041ZM10 5.00041H8V3.00041H10V5.00041ZM16 17.0004H14V15.0004H16V17.0004ZM16 13.0004H14V11.0004H16V13.0004Z" fill="#121212"/>
</svg>
