<svg width="327" height="24" viewBox="0 0 327 24" fill="none" xmlns="http://www.w3.org/2000/svg">
<path d="M38.93 17H40.386L37.46 12.296C38.734 12.03 39.504 11.148 39.504 9.79C39.504 8.138 38.356 7.2 36.62 7.2H33.358V17H34.59V12.38H36.06L38.93 17ZM36.648 8.376C37.67 8.376 38.23 8.81 38.23 9.79C38.23 10.77 37.67 11.204 36.648 11.204H34.59V8.376H36.648ZM46.8488 8.656C46.4568 7.9 45.9248 7.326 44.9728 7.144V5.94H43.8528V7.13C42.7608 7.34 41.8928 8.306 41.8928 9.58C41.8928 11.092 42.9988 11.708 44.2728 12.31C45.2248 12.758 46.1208 13.262 46.1208 14.214C46.1208 14.662 45.9808 15.082 45.7428 15.376C45.4348 15.74 44.9168 15.936 44.4128 15.936C43.1528 15.936 42.6348 14.984 42.3128 13.822L41.2488 14.466C41.5288 15.81 42.5088 16.846 43.8528 17.07V18.26H44.9728V17.056C45.6168 16.958 46.1768 16.65 46.5968 16.188C47.0728 15.67 47.3528 14.984 47.3528 14.186C47.3528 12.604 46.1208 11.932 45.0148 11.372C43.9788 10.854 43.1248 10.448 43.1248 9.482C43.1248 8.852 43.6008 8.25 44.3008 8.25C44.8888 8.25 45.3788 8.446 45.8548 9.3L46.8488 8.656ZM51.875 7.2L54.535 11.736L51.441 17H52.855L55.235 12.94L57.615 17H59.029L55.935 11.736L58.595 7.2H57.181L55.235 10.532L53.289 7.2H51.875ZM59.6614 7.2L62.3214 11.736L59.2274 17H60.6414L63.0214 12.94L65.4014 17H66.8154L63.7214 11.736L66.3814 7.2H64.9674L63.0214 10.532L61.0754 7.2H59.6614ZM67.7278 18.498H68.6238L70.2478 15.46H68.6518L67.7278 18.498ZM71.4288 9.944L73.4868 13.276L71.2048 17H72.5768L74.1588 14.382L75.7408 17H77.1128L74.8308 13.276L76.8888 9.944H75.5168L74.1588 12.17L72.8008 9.944H71.4288ZM77.5609 9.944L79.6189 13.276L77.3369 17H78.7089L80.2909 14.382L81.8729 17H83.2449L80.9629 13.276L83.0209 9.944H81.6489L80.2909 12.17L78.9329 9.944H77.5609Z" fill="#474747"/>
<path d="M9 9H19C19.5304 9 20.0391 9.21071 20.4142 9.58579C20.7893 9.96086 21 10.4696 21 11V17C21 17.5304 20.7893 18.0391 20.4142 18.4142C20.0391 18.7893 19.5304 19 19 19H9C8.46957 19 7.96086 18.7893 7.58579 18.4142C7.21071 18.0391 7 17.5304 7 17V11M9 9C8.46957 9 7.96086 9.21071 7.58579 9.58579C7.21071 9.96086 7 10.4696 7 11M9 9H17V7C17 6.46957 16.7893 5.96086 16.4142 5.58579C16.0391 5.21071 15.5304 5 15 5H5C4.46957 5 3.96086 5.21071 3.58579 5.58579C3.21071 5.96086 3 6.46957 3 7V13C3 13.5304 3.21071 14.0391 3.58579 14.4142C3.96086 14.7893 4.46957 15 5 15H7V11" stroke="#474747" stroke-width="2" stroke-linecap="round" stroke-linejoin="round"/>
<path d="M15.6697 12.3227C15.4128 11.9545 15.0642 11.675 14.4404 11.5864V11H13.7064V11.5795C12.9908 11.6818 12.422 12.1523 12.422 12.7727C12.422 13.5091 13.1468 13.8091 13.9817 14.1023C14.6055 14.3205 15.1927 14.5659 15.1927 15.0295C15.1927 15.2477 15.1009 15.4523 14.945 15.5955C14.7431 15.7727 14.4037 15.8682 14.0734 15.8682C13.2477 15.8682 12.9083 15.4045 12.6972 14.8386L12 15.1523C12.1835 15.8068 12.8257 16.3114 13.7064 16.4205V17H14.4404V16.4136C14.8624 16.3659 15.2294 16.2159 15.5046 15.9909C15.8165 15.7386 16 15.4045 16 15.0159C16 14.2455 15.1927 13.9182 14.4679 13.6455C13.789 13.3932 13.2294 13.1955 13.2294 12.725C13.2294 12.4182 13.5413 12.125 14 12.125C14.3853 12.125 14.7064 12.2205 15.0183 12.6364L15.6697 12.3227Z" fill="#474747"/>
</svg>
