<svg width="24" height="24" viewBox="0 0 24 24" fill="none" xmlns="http://www.w3.org/2000/svg">
<path d="M9 9H19C19.5304 9 20.0391 9.21071 20.4142 9.58579C20.7893 9.96086 21 10.4696 21 11V17C21 17.5304 20.7893 18.0391 20.4142 18.4142C20.0391 18.7893 19.5304 19 19 19H9C8.46957 19 7.96086 18.7893 7.58579 18.4142C7.21071 18.0391 7 17.5304 7 17V11M9 9C8.46957 9 7.96086 9.21071 7.58579 9.58579C7.21071 9.96086 7 10.4696 7 11M9 9H17V7C17 6.46957 16.7893 5.96086 16.4142 5.58579C16.0391 5.21071 15.5304 5 15 5H5C4.46957 5 3.96086 5.21071 3.58579 5.58579C3.21071 5.96086 3 6.46957 3 7V13C3 13.5304 3.21071 14.0391 3.58579 14.4142C3.96086 14.7893 4.46957 15 5 15H7V11" stroke="#474747" stroke-width="2" stroke-linecap="round" stroke-linejoin="round"/>
<path d="M15.6697 12.3227C15.4128 11.9545 15.0642 11.675 14.4404 11.5864V11H13.7064V11.5795C12.9908 11.6818 12.422 12.1523 12.422 12.7727C12.422 13.5091 13.1468 13.8091 13.9817 14.1023C14.6055 14.3205 15.1927 14.5659 15.1927 15.0295C15.1927 15.2477 15.1009 15.4523 14.945 15.5955C14.7431 15.7727 14.4037 15.8682 14.0734 15.8682C13.2477 15.8682 12.9083 15.4045 12.6972 14.8386L12 15.1523C12.1835 15.8068 12.8257 16.3114 13.7064 16.4205V17H14.4404V16.4136C14.8624 16.3659 15.2294 16.2159 15.5046 15.9909C15.8165 15.7386 16 15.4045 16 15.0159C16 14.2455 15.1927 13.9182 14.4679 13.6455C13.789 13.3932 13.2294 13.1955 13.2294 12.725C13.2294 12.4182 13.5413 12.125 14 12.125C14.3853 12.125 14.7064 12.2205 15.0183 12.6364L15.6697 12.3227Z" fill="#474747"/>
</svg>
