<svg width="382" height="140" viewBox="0 0 382 140" fill="none" xmlns="http://www.w3.org/2000/svg">
<g id="Illustration / Services / Mobile">
<g id="Group 3">
<g id="Group">
<path id="Vector" d="M376.423 140H5.57674C2.49969 140 0 137.51 0 134.444C0 131.379 2.49969 128.889 5.57674 128.889H376.423C379.5 128.889 382 131.379 382 134.444C382 137.51 379.507 140 376.423 140Z" fill="#455875"/>
<g id="Group_2">
<g id="Group_3">
<path id="Vector_2" d="M5.57666 134.444H16.074" stroke="#DADFE5" stroke-width="3" stroke-linecap="round" stroke-linejoin="round"/>
<path id="Vector_3" d="M24.3013 134.444H361.819" stroke="#DADFE5" stroke-width="3" stroke-linecap="round" stroke-linejoin="round" stroke-dasharray="30.86 30.86"/>
<path id="Vector_4" d="M365.926 134.444H376.423" stroke="#DADFE5" stroke-width="3" stroke-linecap="round" stroke-linejoin="round"/>
</g>
</g>
</g>
<path id="Vector_5" opacity="0.4" d="M379.914 128.889C379.914 128.889 394.783 90.1001 345.131 80.6017C301.826 67.8497 318.656 37.1811 307.702 16.6784C295.833 -5.53836 257.474 -2.28976 230.047 7.61113C202.62 17.512 198.348 28.0053 177.464 28.181C156.58 28.3568 148.036 13.6063 110.534 9.70066C73.0312 5.79499 35.4292 14.3745 11.4411 66.4046C-2.56445 96.7842 0.226715 128.544 0.226715 128.544" fill="#CAF5FF"/>
<g id="Group 1">
<g id="Icon / Wifi">
<path id="Vector_6" d="M98.6646 46.9993L101.643 49.9622C109.045 42.5993 121.048 42.5993 128.45 49.9622L131.429 46.9993C122.389 38.0067 107.719 38.0067 98.6646 46.9993ZM110.579 58.8511L115.047 63.2955L119.514 58.8511C117.057 56.3918 113.051 56.3918 110.579 58.8511ZM104.622 52.9252L107.6 55.8881C111.711 51.7992 118.383 51.7992 122.493 55.8881L125.472 52.9252C119.723 47.2067 110.385 47.2067 104.622 52.9252Z" fill="#185DA2"/>
</g>
<g id="Icon / Fridge">
<path id="Vector_7" d="M183.553 36.6289H198.446C199.236 36.6289 199.994 36.941 200.552 37.4967C201.111 38.0524 201.425 38.806 201.425 39.5918V46.9992H180.575V39.5918C180.575 38.806 180.889 38.0524 181.447 37.4967C182.006 36.941 182.763 36.6289 183.553 36.6289ZM201.425 61.814C201.425 62.5999 201.111 63.3535 200.552 63.9092C199.994 64.4648 199.236 64.777 198.446 64.777V66.2585H195.467V64.777H186.532V66.2585H183.553V64.777C182.763 64.777 182.006 64.4648 181.447 63.9092C180.889 63.3535 180.575 62.5999 180.575 61.814V48.4807H201.425V61.814ZM185.043 41.0733V44.0363H188.021V41.0733H185.043ZM185.043 51.4437V55.8881H188.021V51.4437H185.043Z" fill="#185DA2"/>
</g>
<g id="Icon / DTV">
<path id="Vector_8" d="M279.138 43.4976H268.862L273.316 39.0666L272.368 38.1104L266.953 43.4976L261.537 38.1104L260.576 39.0666L265.044 43.4976H254.768C253.279 43.4976 252.06 44.6962 252.06 46.1912V62.3528C252.06 63.8343 253.279 65.0464 254.768 65.0464H279.138C280.627 65.0464 281.846 63.8343 281.846 62.3528V46.1912C281.846 44.6962 280.627 43.4976 279.138 43.4976ZM279.138 62.3528H254.768V46.1912H279.138V62.3528ZM262.891 48.8848V59.6592L272.368 54.272L262.891 48.8848Z" fill="#185DA2"/>
</g>
</g>
<g id="Group 2">
<g id="Icon / Seat / Recline">
<path id="Vector_9" d="M29.1898 93.6876C27.8494 92.7394 27.5218 90.9024 28.46 89.5542C29.3983 88.2209 31.2599 87.895 32.6151 88.8283C33.9555 89.7765 34.2831 91.6135 33.3449 92.9616C32.3917 94.295 30.545 94.6209 29.1898 93.6876ZM45.0506 113.48H34.5214C32.3173 113.48 30.4408 111.88 30.1131 109.717L27.1792 95.7024H24.2007L27.1643 110.162C27.7303 113.776 30.8578 116.443 34.5363 116.443H45.0506V113.48ZM45.3931 107.554H38.1254L36.5915 101.48C38.9445 102.799 41.4763 103.762 44.2613 103.288V100.132C41.8337 100.591 39.1381 99.732 37.2766 98.2802L34.8341 96.3987C34.4916 96.132 34.1044 95.9542 33.7023 95.8357C33.2257 95.7024 32.7194 95.6579 32.2279 95.7468H32.1981C30.3663 96.0728 29.1451 97.8061 29.4578 99.6135L31.4684 108.384C31.8854 110.488 33.7172 111.999 35.8617 111.999H46.0633L51.7523 116.443L53.9863 114.221L45.3931 107.554Z" fill="#185DA2"/>
</g>
<g id="Icon / Seat / Heat" clip-path="url(#clip0)">
<path id="Vector_10" d="M255.97 112C255.97 112 251.502 100.148 251.502 94.2218C251.502 88.2959 254.481 88.2959 254.481 88.2959H255.97C255.97 88.2959 257.46 88.2959 257.46 89.7774C257.46 91.2589 255.97 91.2589 255.97 94.2218C255.97 97.1848 260.438 100.148 260.438 104.592C260.438 109.037 255.97 112 255.97 112ZM270.863 110.518C272.501 110.518 273.842 111.851 273.842 113.481V114.963C273.842 116.592 272.501 117.926 270.863 117.926H261.927C258.949 117.926 257.46 115.259 257.46 115.259C257.162 114.963 257.013 114.37 257.46 114.074C257.46 114.074 261.927 110.37 263.417 110.37H270.863V110.518ZM268.927 90.37L266.842 95.407L268.927 100.444L265.948 107.555L263.417 105.481L265.502 100.444L263.417 95.407L266.395 88.2959L268.927 90.37ZM275.182 90.37L273.097 95.407L275.182 100.444L272.203 107.555L269.672 105.481L271.757 100.444L269.672 95.407L272.65 88.2959L275.182 90.37ZM281.288 90.37L279.203 95.407L281.288 100.444L278.309 107.555L275.778 105.481L277.863 100.444L275.778 95.407L278.756 88.2959L281.288 90.37Z" fill="#185DA2"/>
</g>
<g id="Icon / Seat / Cold">
<path id="Vector_11" d="M204.105 100.444L202.02 101.036L200.233 99.9992V97.4807L202.02 96.4437L204.105 97.0363L204.552 95.4066L202.914 94.9622L203.361 93.3326L201.723 92.8881L201.127 94.9622L199.34 95.9992L197.106 94.6659V92.74L198.595 91.2585L197.404 90.0733L196.212 91.2585L195.021 90.0733L193.829 91.2585L195.319 92.74V94.6659L193.085 95.9992L191.298 94.9622L190.851 92.8881L189.213 93.3326L189.659 94.9622L188.021 95.2585L188.468 96.8881L190.553 96.2955L192.34 97.3326V99.8511L190.553 100.888L188.468 100.296L188.021 102.221L189.659 102.666L189.213 104.147L190.851 104.592L191.446 102.518L193.234 101.481L195.468 102.814V104.74L193.978 106.221L195.17 107.407L196.361 106.221L197.553 107.407L198.744 106.221L197.255 104.74V102.814L199.489 101.481L201.276 102.518L201.871 104.592L203.51 104.147L202.914 102.518L204.552 102.073L204.105 100.444ZM193.978 97.4807L196.212 96.1474L198.446 97.4807V99.9992L196.212 101.333L193.978 99.9992V97.4807ZM180.575 111.999C180.575 111.999 176.107 100.147 176.107 94.2215C176.107 88.2955 179.085 88.2955 179.085 88.2955H180.575C180.575 88.2955 182.064 88.2955 182.064 89.777C182.064 91.2585 180.575 91.2585 180.575 94.2215C180.575 97.1844 185.043 100.147 185.043 104.592C185.043 109.036 180.575 111.999 180.575 111.999ZM195.468 110.518C197.106 110.518 198.446 111.851 198.446 113.481V114.962C198.446 116.592 197.106 117.925 195.468 117.925H186.532C183.553 117.925 182.064 115.258 182.064 115.258C181.766 114.962 181.617 114.37 182.064 114.073C182.064 114.073 186.532 110.37 188.021 110.37H195.468V110.518Z" fill="#185DA2"/>
</g>
<g id="Icon / Light">
<path id="Vector_12" d="M332.761 111.492L335.114 109.166L336.924 110.955L334.571 113.282L332.761 111.492ZM342.354 116.444V112.685H344.948V116.444H342.354ZM333.364 101.231V103.796H329.503V101.231H333.364ZM347.543 95.9217C348.709 96.5978 349.644 97.5125 350.348 98.6659C351.052 99.8193 351.404 101.092 351.404 102.484C351.404 104.592 350.65 106.391 349.141 107.883C347.633 109.374 345.813 110.12 343.681 110.12C341.549 110.12 339.729 109.374 338.221 107.883C336.713 106.391 335.959 104.592 335.959 102.484C335.959 101.092 336.3 99.8193 336.984 98.6659C337.668 97.5125 338.613 96.5978 339.82 95.9217V89.777H347.543V95.9217ZM353.938 101.231H357.799V103.796H353.938V101.231ZM350.378 110.955L352.188 109.225L354.541 111.492L352.731 113.282L350.378 110.955Z" fill="#185DA2"/>
</g>
<g id="Icon / Stereo">
<path id="Vector_13" d="M126.678 110.084L123.303 108.158C123.247 108.127 123.186 108.107 123.123 108.099C123.059 108.091 122.995 108.095 122.933 108.112C122.872 108.128 122.814 108.157 122.763 108.195C122.713 108.234 122.671 108.282 122.639 108.337L122.03 109.379C121.895 109.609 121.975 109.905 122.207 110.038L125.583 111.964C125.638 111.995 125.699 112.015 125.763 112.023C125.826 112.031 125.89 112.027 125.952 112.01C126.014 111.994 126.072 111.966 126.122 111.927C126.173 111.888 126.215 111.84 126.247 111.785L126.856 110.743C126.99 110.513 126.908 110.217 126.678 110.084ZM122.636 98.1804C122.668 98.2352 122.71 98.2833 122.76 98.3219C122.811 98.3605 122.869 98.3889 122.93 98.4055C122.992 98.422 123.056 98.4264 123.12 98.4184C123.183 98.4104 123.244 98.3901 123.3 98.3588L126.675 96.4333C126.908 96.3003 126.987 96.0041 126.853 95.7744L126.247 94.7346C126.215 94.6798 126.173 94.6317 126.122 94.5931C126.072 94.5545 126.014 94.5261 125.952 94.5095C125.89 94.493 125.826 94.4886 125.763 94.4966C125.699 94.5046 125.638 94.5249 125.583 94.5562L122.207 96.4817C122.096 96.546 122.014 96.6515 121.981 96.775C121.948 96.8984 121.965 97.0299 122.03 97.1406L122.636 98.1804ZM127.96 102.17H124.043C123.774 102.17 123.554 102.388 123.554 102.654V103.863C123.554 104.129 123.774 104.347 124.043 104.347H127.96C128.23 104.347 128.45 104.129 128.45 103.863V102.654C128.45 102.388 128.23 102.17 127.96 102.17ZM118.532 91.2585C118.352 91.2585 118.168 91.3069 118 91.4187L107.151 98.4222H102.133C101.863 98.4222 101.643 98.6399 101.643 98.9059V107.611C101.643 107.877 101.863 108.095 102.133 108.095H107.151L118 115.098C118.168 115.207 118.355 115.259 118.532 115.259C119.043 115.259 119.514 114.856 119.514 114.288V92.2288C119.514 91.6605 119.043 91.2585 118.532 91.2585Z" fill="#185DA2"/>
</g>
</g>
</g>
</g>
<defs>
<clipPath id="clip0">
<rect width="35.7427" height="35.5555" fill="white" transform="translate(249.082 85.3326)"/>
</clipPath>
</defs>
</svg>
