<svg width="24" height="24" viewBox="0 0 24 24" fill="none" xmlns="http://www.w3.org/2000/svg">
<path d="M19.8465 8.86987H3.52141C3.23344 8.86987 3 9.10331 3 9.39129V20.3392C3 20.6271 3.23344 20.8606 3.52141 20.8606H19.8465C20.1345 20.8606 20.3679 20.6271 20.3679 20.3392V9.39129C20.3679 9.10331 20.1345 8.86987 19.8465 8.86987Z" fill="#121212"/>
<path d="M20.1072 8.37787H3.64601C3.28924 8.37787 3 8.66711 3 9.02388V9.44872H20.3679V8.63858C20.3679 8.56943 20.3404 8.50312 20.2915 8.45423C20.2427 8.40534 20.1763 8.37787 20.1072 8.37787Z" fill="#121212"/>
<path d="M20.6535 3.87842H9.3831C9.20108 3.87842 9.05353 4.06519 9.05353 4.29555V20.4434C9.05353 20.6738 9.20108 20.8606 9.3831 20.8606H20.6535C20.8356 20.8606 20.9831 20.6738 20.9831 20.4434V4.29555C20.9831 4.06519 20.8356 3.87842 20.6535 3.87842Z" fill="#121212"/>
<path d="M20.0163 3H10.0372C9.49394 3 9.05353 3.44041 9.05353 3.9837V4.42444H21V3.9837C21 3.44041 20.5596 3 20.0163 3Z" fill="#121212"/>
<path d="M7.49455 17.2121H4.69952C4.63038 17.2121 4.56406 17.1846 4.51517 17.1357C4.46628 17.0869 4.43881 17.0205 4.43881 16.9514V15.8079C4.43881 15.7388 4.46628 15.6725 4.51517 15.6236C4.56406 15.5747 4.63038 15.5472 4.69952 15.5472H7.49455C7.5637 15.5472 7.63001 15.5747 7.6789 15.6236C7.72779 15.6725 7.75526 15.7388 7.75526 15.8079V16.9514C7.75526 17.0205 7.72779 17.0869 7.6789 17.1357C7.63001 17.1846 7.5637 17.2121 7.49455 17.2121ZM7.75526 19.5029V18.3594C7.75526 18.2903 7.72779 18.2239 7.6789 18.175C7.63001 18.1262 7.5637 18.0987 7.49455 18.0987H4.68515C4.616 18.0987 4.54969 18.1262 4.5008 18.175C4.45191 18.2239 4.42444 18.2903 4.42444 18.3594V19.5029C4.42444 19.572 4.45191 19.6383 4.5008 19.6872C4.54969 19.7361 4.616 19.7636 4.68515 19.7636H7.49455C7.5637 19.7636 7.63001 19.7361 7.6789 19.6872C7.72779 19.6383 7.75526 19.572 7.75526 19.5029ZM17.3961 16.6171H12.6461V20.8606H17.3961V16.6171ZM6.86455 10.4265V11.6743C6.86454 11.7253 6.84428 11.7742 6.80823 11.8102C6.77218 11.8463 6.72329 11.8665 6.67231 11.8665H5.50739C5.45641 11.8665 5.40752 11.8463 5.37147 11.8102C5.33542 11.7742 5.31516 11.7253 5.31515 11.6743V10.4266C5.31514 10.3756 5.29489 10.3267 5.25884 10.2907C5.22279 10.2546 5.1739 10.2344 5.12292 10.2344H4.64973C4.59875 10.2344 4.54986 10.2546 4.51381 10.2907C4.47776 10.3267 4.45751 10.3756 4.4575 10.4266V14.4662C4.45751 14.5172 4.47776 14.566 4.51381 14.6021C4.54986 14.6381 4.59875 14.6584 4.64973 14.6584H5.12295C5.17393 14.6584 5.22282 14.6381 5.25887 14.6021C5.29492 14.566 5.31518 14.5172 5.31519 14.4662V12.9164C5.3152 12.8654 5.33545 12.8165 5.3715 12.7805C5.40755 12.7444 5.45644 12.7241 5.50742 12.7241H6.67238C6.72337 12.7241 6.77226 12.7444 6.80831 12.7805C6.84435 12.8165 6.86461 12.8654 6.86462 12.9164V14.4662C6.86463 14.5172 6.88489 14.566 6.92094 14.6021C6.95698 14.6381 7.00587 14.6584 7.05686 14.6584H7.53007C7.58106 14.6584 7.62995 14.6381 7.666 14.6021C7.70204 14.566 7.7223 14.5172 7.72231 14.4662V10.4265C7.7223 10.3756 7.70204 10.3267 7.666 10.2906C7.62995 10.2546 7.58106 10.2343 7.53007 10.2343H7.05686C7.03161 10.2343 7.0066 10.2393 6.98327 10.2489C6.95994 10.2586 6.93875 10.2728 6.92089 10.2906C6.90303 10.3085 6.88886 10.3296 6.8792 10.353C6.86953 10.3763 6.86455 10.4013 6.86455 10.4265Z" fill="white"/>
<path d="M15.7938 11.3662H14.2432C14.1741 11.3662 14.1078 11.3388 14.0589 11.2899C14.01 11.241 13.9825 11.1747 13.9825 11.1055V9.49092C13.9825 9.42178 14.01 9.35547 14.0589 9.30657C14.1078 9.25768 14.1741 9.23021 14.2432 9.23021H15.7938C15.8629 9.23021 15.9293 9.25768 15.9781 9.30657C16.027 9.35547 16.0545 9.42178 16.0545 9.49092V11.1055C16.0545 11.1747 16.027 11.241 15.9781 11.2899C15.9293 11.3388 15.8629 11.3662 15.7938 11.3662ZM19.6784 11.1055V9.49092C19.6784 9.42178 19.6509 9.35547 19.602 9.30657C19.5531 9.25768 19.4868 9.23021 19.4177 9.23021H17.8671C17.7979 9.23021 17.7316 9.25768 17.6827 9.30657C17.6338 9.35547 17.6064 9.42178 17.6064 9.49092V11.1055C17.6064 11.1747 17.6338 11.241 17.6827 11.2899C17.7316 11.3388 17.7979 11.3662 17.8671 11.3662H19.4177C19.4868 11.3662 19.5531 11.3388 19.602 11.2899C19.6509 11.241 19.6784 11.1747 19.6784 11.1055ZM16.0545 14.5683V12.9537C16.0545 12.8845 16.027 12.8182 15.9781 12.7693C15.9293 12.7204 15.8629 12.693 15.7938 12.693H14.2432C14.1741 12.693 14.1078 12.7204 14.0589 12.7693C14.01 12.8182 13.9825 12.8845 13.9825 12.9537V14.5683C13.9825 14.6374 14.01 14.7038 14.0589 14.7526C14.1078 14.8015 14.1741 14.829 14.2432 14.829H15.7938C15.8629 14.829 15.9293 14.8015 15.9781 14.7526C16.027 14.7038 16.0545 14.6374 16.0545 14.5683ZM19.6784 14.5683V12.9537C19.6784 12.8845 19.6509 12.8182 19.602 12.7693C19.5531 12.7204 19.4868 12.693 19.4177 12.693H17.8671C17.7979 12.693 17.7316 12.7204 17.6827 12.7693C17.6338 12.8182 17.6064 12.8845 17.6064 12.9537V14.5683C17.6064 14.6374 17.6338 14.7038 17.6827 14.7526C17.7316 14.8015 17.7979 14.829 17.8671 14.829H19.4177C19.4868 14.829 19.5531 14.8015 19.602 14.7526C19.6509 14.7038 19.6784 14.6374 19.6784 14.5683ZM12.4306 11.1055V9.49092C12.4306 9.42178 12.4032 9.35547 12.3543 9.30657C12.3054 9.25768 12.2391 9.23021 12.1699 9.23021H10.6193C10.5502 9.23021 10.4839 9.25768 10.435 9.30657C10.3861 9.35547 10.3586 9.42178 10.3586 9.49092V11.1055C10.3586 11.1747 10.3861 11.241 10.435 11.2899C10.4839 11.3388 10.5502 11.3662 10.6193 11.3662H12.1699C12.2391 11.3662 12.3054 11.3388 12.3543 11.2899C12.4032 11.241 12.4306 11.1747 12.4306 11.1055ZM12.4306 14.5683V12.9537C12.4306 12.8845 12.4032 12.8182 12.3543 12.7693C12.3054 12.7204 12.2391 12.693 12.1699 12.693H10.6193C10.5502 12.693 10.4839 12.7204 10.435 12.7693C10.3861 12.8182 10.3586 12.8845 10.3586 12.9537V14.5683C10.3586 14.6374 10.3861 14.7038 10.435 14.7526C10.4839 14.8015 10.5502 14.829 10.6193 14.829H12.1699C12.2391 14.829 12.3054 14.8015 12.3543 14.7526C12.4032 14.7038 12.4306 14.6374 12.4306 14.5683ZM16.0545 7.63661V6.022C16.0545 5.95285 16.027 5.88654 15.9781 5.83765C15.9293 5.78876 15.8629 5.76129 15.7938 5.76129H14.2432C14.1741 5.76129 14.1078 5.78876 14.0589 5.83765C14.01 5.88654 13.9825 5.95285 13.9825 6.022V7.63661C13.9825 7.70575 14.01 7.77206 14.0589 7.82095C14.1078 7.86985 14.1741 7.89731 14.2432 7.89731H15.7938C15.8629 7.89731 15.9293 7.86985 15.9781 7.82095C16.027 7.77206 16.0545 7.70575 16.0545 7.63661ZM19.6784 7.63661V6.022C19.6784 5.95285 19.6509 5.88654 19.602 5.83765C19.5531 5.78876 19.4868 5.76129 19.4177 5.76129H17.8671C17.7979 5.76129 17.7316 5.78876 17.6827 5.83765C17.6338 5.88654 17.6064 5.95285 17.6064 6.022V7.63661C17.6064 7.70575 17.6338 7.77206 17.6827 7.82095C17.7316 7.86985 17.7979 7.89731 17.8671 7.89731H19.4177C19.4868 7.89731 19.5531 7.86985 19.602 7.82095C19.6509 7.77206 19.6784 7.70575 19.6784 7.63661ZM12.4306 7.63661V6.022C12.4306 5.95285 12.4032 5.88654 12.3543 5.83765C12.3054 5.78876 12.2391 5.76129 12.1699 5.76129H10.6193C10.5502 5.76129 10.4839 5.78876 10.435 5.83765C10.3861 5.88654 10.3586 5.95285 10.3586 6.022V7.63661C10.3586 7.70575 10.3861 7.77206 10.435 7.82095C10.4839 7.86985 10.5502 7.89731 10.6193 7.89731H12.1699C12.2391 7.89731 12.3054 7.86985 12.3543 7.82095C12.4032 7.77206 12.4306 7.70575 12.4306 7.63661ZM17.4331 16.0122H12.6092C12.4121 16.0122 12.2524 16.172 12.2524 16.369V16.9786C12.2524 17.0239 12.2704 17.0674 12.3024 17.0994C12.3345 17.1315 12.3779 17.1495 12.4232 17.1495H14.8944V20.8606H15.1479V17.1495H17.6191C17.6644 17.1495 17.7078 17.1315 17.7399 17.0994C17.7719 17.0674 17.7899 17.0239 17.7899 16.9786V16.369C17.7899 16.172 17.6302 16.0122 17.4331 16.0122Z" fill="white"/>
</svg>
