<svg width="382" height="212" viewBox="0 0 382 212" fill="none" xmlns="http://www.w3.org/2000/svg">
<g id="Illustration / Travel / Mobile">
<g id="Group">
<path id="Vector" opacity="0.4" d="M18.1211 183.513C18.1211 183.513 10.2678 147.71 50.171 134.862C90.0742 122.013 82.6407 100.318 93.5711 77.9331C104.508 55.5486 130.942 51.3445 156.214 61.3202C181.487 71.2958 185.423 81.8683 204.666 82.0453C223.909 82.2224 231.782 67.3606 266.338 63.4255C300.895 59.4903 335.543 68.1346 357.646 120.557C370.551 151.166 367.979 183.166 367.979 183.166" fill="#CAF5FF"/>
</g>
<g id="Group_2">
<g id="Group_3">
<path id="Vector_2" d="M242.542 166.02C242.542 166.02 242.871 156.019 245.823 153.31C248.775 150.608 251.282 151.178 253.558 149.296C255.835 147.414 255.992 143.144 258.453 141.832C260.913 140.521 262.468 141.098 263.951 139.537C265.433 137.976 268.136 135.766 269.606 137.733C271.076 139.701 268.215 143.42 267.474 146.194C266.739 148.968 262.802 150.195 260.093 153.31C257.39 156.425 258.531 163.476 252.141 165.607" fill="#A6EDC3"/>
<path id="Vector_3" d="M267.821 138.947C267.821 138.947 255.631 149.782 247.43 166.257" stroke="#98E2B6" stroke-width="0.75" stroke-miterlimit="10" stroke-linecap="round" stroke-linejoin="round"/>
<path id="Vector_4" d="M261.044 142.606C261.044 142.606 259.817 146.115 259.338 148.057" stroke="#98E2B6" stroke-width="0.75" stroke-miterlimit="10" stroke-linecap="round" stroke-linejoin="round"/>
<path id="Vector_5" d="M266.962 142.448C266.962 142.448 263.373 144.521 261.648 145.328" stroke="#98E2B6" stroke-width="0.75" stroke-miterlimit="10" stroke-linecap="round" stroke-linejoin="round"/>
<path id="Vector_6" d="M255.893 149.211C255.893 149.211 254.667 152.72 254.188 154.661" stroke="#98E2B6" stroke-width="0.75" stroke-miterlimit="10" stroke-linecap="round" stroke-linejoin="round"/>
<path id="Vector_7" d="M252.469 157.456C252.469 157.456 256.675 155.213 258.643 152.602" stroke="#98E2B6" stroke-width="0.75" stroke-miterlimit="10" stroke-linecap="round" stroke-linejoin="round"/>
</g>
<g id="Group_4">
<path id="Vector_8" d="M226.284 149.966C226.284 149.966 224.644 140.095 227.006 136.862C229.368 133.628 231.94 133.7 233.797 131.405C235.653 129.109 234.978 124.899 237.136 123.128C239.288 121.357 240.935 121.62 242.076 119.796C243.218 117.98 245.436 115.277 247.273 116.917C249.103 118.557 247.023 122.767 246.84 125.633C246.662 128.493 243.041 130.474 241 134.061C238.96 137.649 241.466 144.332 235.614 147.677" fill="#A6EDC3"/>
<path id="Vector_9" d="M245.764 118.464C245.764 118.464 235.936 131.483 231.126 149.244" stroke="#98E2B6" stroke-width="0.75" stroke-miterlimit="10" stroke-linecap="round" stroke-linejoin="round"/>
<path id="Vector_10" d="M239.832 123.377C239.832 123.377 239.321 127.063 239.229 129.057" stroke="#98E2B6" stroke-width="0.75" stroke-miterlimit="10" stroke-linecap="round" stroke-linejoin="round"/>
<path id="Vector_11" d="M245.606 122.066C245.606 122.066 242.496 124.801 240.961 125.935" stroke="#98E2B6" stroke-width="0.75" stroke-miterlimit="10" stroke-linecap="round" stroke-linejoin="round"/>
<path id="Vector_12" d="M236.079 130.866C236.079 130.866 235.568 134.552 235.476 136.546" stroke="#98E2B6" stroke-width="0.75" stroke-miterlimit="10" stroke-linecap="round" stroke-linejoin="round"/>
<path id="Vector_13" d="M234.334 139.623C234.334 139.623 238.015 136.599 239.432 133.654" stroke="#98E2B6" stroke-width="0.75" stroke-miterlimit="10" stroke-linecap="round" stroke-linejoin="round"/>
</g>
<g id="Group_5">
<path id="Vector_14" d="M105.957 177.82C105.957 177.82 105.629 167.818 102.677 165.109C99.7246 162.4 97.2183 162.978 94.9417 161.095C92.6651 159.213 92.5076 154.943 90.0473 153.632C87.587 152.32 86.032 152.897 84.5493 151.336C83.0731 149.775 80.37 147.565 78.8938 149.532C77.4176 151.5 80.2847 155.219 81.0261 157.993C81.7675 160.767 85.6974 161.994 88.4071 165.109C91.1167 168.224 89.9686 175.275 96.3588 177.407" fill="#A6EDC3"/>
<path id="Vector_15" d="M80.6729 150.746C80.6729 150.746 92.8629 161.58 101.064 178.056" stroke="#98E2B6" stroke-width="0.75" stroke-miterlimit="10" stroke-linecap="round" stroke-linejoin="round"/>
<path id="Vector_16" d="M87.4502 154.406C87.4502 154.406 88.6767 157.915 89.1555 159.856" stroke="#98E2B6" stroke-width="0.75" stroke-miterlimit="10" stroke-linecap="round" stroke-linejoin="round"/>
<path id="Vector_17" d="M81.5322 154.248C81.5322 154.248 85.121 156.321 86.8465 157.128" stroke="#98E2B6" stroke-width="0.75" stroke-miterlimit="10" stroke-linecap="round" stroke-linejoin="round"/>
<path id="Vector_18" d="M92.6006 161.011C92.6006 161.011 93.8271 164.52 94.3059 166.461" stroke="#98E2B6" stroke-width="0.75" stroke-miterlimit="10" stroke-linecap="round" stroke-linejoin="round"/>
<path id="Vector_19" d="M96.0317 169.255C96.0317 169.255 91.8262 167.012 89.8579 164.408" stroke="#98E2B6" stroke-width="0.75" stroke-miterlimit="10" stroke-linecap="round" stroke-linejoin="round"/>
</g>
<g id="Group_6">
<path id="Vector_20" d="M227.905 144.339C227.905 144.339 234.164 128.389 244.346 130.822C255.067 133.386 245.783 159.699 245.783 159.699C245.783 159.699 250.704 153.77 258.085 155.246C265.466 156.722 258.085 171.203 258.085 171.203C258.085 171.203 266.942 164.894 272.027 167.366C277.111 169.839 270.714 177.375 270.714 177.375C270.714 177.375 282.209 168.468 289.826 171.197C297.45 173.931 290.489 184.458 290.489 184.458H232.445" fill="#B5F5D0"/>
<path id="Vector_21" d="M149.785 136.546C149.785 136.546 143.447 119.488 135.036 121.79C126.618 124.092 132.024 139.878 132.024 139.878L135.036 152.156C135.036 152.156 128.37 146.443 121.881 148.05C115.393 149.664 119.165 163.41 119.165 163.41C119.165 163.41 104.193 153.599 97.8161 155.894C91.4455 158.19 97.8161 171.714 97.8161 171.714C97.8161 171.714 79.8065 162.289 76.0275 168.356C72.2484 174.422 83.4478 184.339 83.4478 184.339H152.298" fill="#B5F5D0"/>
</g>
</g>
<g id="Group_7">
<g id="Group_8">
<path id="Vector_22" d="M225.333 185.435C230.673 185.435 235.017 181.094 235.017 175.755V36.1814C235.017 30.8427 230.673 26.5009 225.333 26.5009H156.667C151.326 26.5009 146.983 30.8427 146.983 36.1814V175.748C146.983 181.087 151.326 185.429 156.667 185.429H225.333V185.435Z" fill="#F4EDE3"/>
<g id="Group_9">
<g id="Group_10">
<path id="Vector_23" d="M145.061 12.1506L244.471 111.526" stroke="white" stroke-width="8.2041" stroke-miterlimit="10"/>
<path id="Vector_24" d="M187.7 54.7751L135.567 106.89" stroke="white" stroke-width="8.2041" stroke-miterlimit="10"/>
<path id="Vector_25" d="M156.267 86.1961L204.292 134.212L235.732 102.783" stroke="white" stroke-width="8.2041" stroke-miterlimit="10"/>
<path id="Vector_26" d="M161.515 139.136C155.84 133.463 155.84 124.268 161.515 118.595L175.083 105.032L195.632 125.573L182.064 139.136C176.389 144.81 167.19 144.81 161.515 139.136Z" stroke="white" stroke-width="8.2041" stroke-miterlimit="10"/>
<path id="Vector_27" d="M170.491 71.9778L137.568 39.0667" stroke="white" stroke-width="8.2041" stroke-miterlimit="10"/>
<path id="Vector_28" d="M176.77 43.849L207.907 12.7153" stroke="white" stroke-width="8.2041" stroke-miterlimit="10"/>
<path id="Vector_29" d="M201.773 68.8354L247.154 23.4696" stroke="white" stroke-width="8.2041" stroke-miterlimit="10"/>
<path id="Vector_30" d="M183.868 137.333L246.518 199.967" stroke="white" stroke-width="8.2041" stroke-miterlimit="10"/>
<path id="Vector_31" d="M204.292 134.212L219.382 149.29L207.599 161.063" stroke="white" stroke-width="8.2041" stroke-miterlimit="10"/>
<path id="Vector_32" d="M197.882 151.35L140.212 209" stroke="white" stroke-width="8.2041" stroke-miterlimit="10"/>
<path id="Vector_33" d="M188.251 118.17L219.684 86.7479" stroke="white" stroke-width="4.6881" stroke-miterlimit="10"/>
<path id="Vector_34" d="M199.785 20.8341L224.461 45.501" stroke="white" stroke-width="4.6881" stroke-miterlimit="10"/>
<path id="Vector_35" d="M175.575 174.699L207.008 206.121" stroke="white" stroke-width="4.6881" stroke-miterlimit="10"/>
<path id="Vector_36" d="M161.515 139.137L133.415 167.228" stroke="white" stroke-width="4.6881" stroke-miterlimit="10"/>
<path id="Vector_37" d="M220.366 173.826L242.516 151.685" stroke="white" stroke-width="4.6881" stroke-miterlimit="10"/>
<path id="Vector_38" d="M213.766 80.8321L222.341 72.26C224.572 70.0301 224.572 66.4097 222.341 64.1733L214.389 56.2242" stroke="white" stroke-width="4.6881" stroke-miterlimit="10"/>
<path id="Vector_39" d="M219.389 158.38C224.447 158.38 228.548 154.281 228.548 149.224C228.548 144.168 224.447 140.069 219.389 140.069C214.331 140.069 210.23 144.168 210.23 149.224C210.23 154.281 214.331 158.38 219.389 158.38Z" fill="white"/>
<path id="Vector_40" d="M222.722 149.226C222.722 151.062 221.232 152.557 219.389 152.557C217.552 152.557 216.056 151.069 216.056 149.226C216.056 147.382 217.545 145.894 219.389 145.894C221.226 145.894 222.722 147.389 222.722 149.226Z" fill="#F4EBE2"/>
<path id="Vector_41" d="M191.663 86.193L178.469 73.0034L165.275 86.193L178.469 99.3827L191.663 86.193Z" fill="#B5F5D0"/>
<path id="Vector_42" d="M212.428 117.262L204.467 109.304L196.506 117.262L204.467 125.221L212.428 117.262Z" fill="#EADED3"/>
<path id="Vector_43" d="M222.358 107.34L214.397 99.3813L206.436 107.34L214.397 115.298L222.358 107.34Z" fill="#EADED3"/>
<path id="Vector_44" d="M226.68 103.016L218.719 95.0579L216.77 97.0057L224.731 104.964L226.68 103.016Z" fill="#EADED3"/>
<path id="Vector_45" d="M165.334 135.307C161.693 131.667 161.693 125.757 165.334 122.117L175.057 112.397L188.251 125.587L178.528 135.307C174.88 138.947 168.975 138.947 165.334 135.307Z" fill="#B5F5D0"/>
<path id="Vector_46" d="M210.508 175.029L197.314 161.84L184.12 175.029L197.314 188.219L210.508 175.029Z" fill="#B5F5D0"/>
<path id="Vector_47" d="M214.965 44.4971L201.771 31.3074L188.576 44.4971L201.771 57.6868L214.965 44.4971Z" fill="#B5F5D0"/>
<path id="Vector_48" d="M153.407 71.9764L140.212 58.7867L127.018 71.9764L140.212 85.166L153.407 71.9764Z" fill="#B5F5D0"/>
</g>
</g>
<path id="Vector_49" d="M156.667 28.4208H225.333C229.617 28.4208 233.094 31.9034 233.094 36.1796V175.747C233.094 180.029 229.61 183.505 225.333 183.505H156.667C152.382 183.505 148.905 180.023 148.905 175.747V36.1796C148.905 31.9034 152.389 28.4208 156.667 28.4208ZM156.667 24.5775C150.257 24.5775 145.061 29.7719 145.061 36.1796V175.747C145.061 182.154 150.257 187.349 156.667 187.349H225.333C231.743 187.349 236.939 182.154 236.939 175.747V36.1796C236.939 29.7719 231.743 24.5775 225.333 24.5775H156.667Z" fill="#2D287C"/>
</g>
<path id="Vector_50" d="M236.834 63.4183H235.358V48.7729H236.834C237.772 48.7729 238.526 49.5337 238.526 50.4651V61.7262C238.526 62.6575 237.772 63.4183 236.834 63.4183Z" fill="#2D287C"/>
<path id="Vector_51" d="M236.834 80.5823H235.358V65.937H236.834C237.772 65.937 238.526 66.6977 238.526 67.6291V78.8902C238.526 79.8215 237.772 80.5823 236.834 80.5823Z" fill="#2D287C"/>
<g id="Group_11">
<g id="Group_12">
<path id="Vector_52" d="M190.606 120.551L188.979 118.924" stroke="#FC5475" stroke-width="2" stroke-linecap="round" stroke-linejoin="round"/>
<path id="Vector_53" d="M186.59 116.536L159.081 89.0166" stroke="#FC5475" stroke-width="2" stroke-linecap="round" stroke-linejoin="round" stroke-dasharray="7.22 7.22"/>
<path id="Vector_54" d="M157.887 87.8242L156.267 86.1976L157.887 84.571" stroke="#FC5475" stroke-width="2" stroke-linecap="round" stroke-linejoin="round"/>
<path id="Vector_55" d="M160.059 82.407L184.99 57.4843" stroke="#FC5475" stroke-width="2" stroke-linecap="round" stroke-linejoin="round" stroke-dasharray="6.54 6.54"/>
<path id="Vector_56" d="M186.073 56.3945L187.699 54.7744L186.073 53.1478" stroke="#FC5475" stroke-width="2" stroke-linecap="round" stroke-linejoin="round"/>
<path id="Vector_57" d="M184.052 51.1214L175.333 42.4111" stroke="#FC5475" stroke-width="2" stroke-linecap="round" stroke-linejoin="round" stroke-dasharray="6.12 6.12"/>
<path id="Vector_58" d="M174.321 41.4015L172.695 39.7749" stroke="#FC5475" stroke-width="2" stroke-linecap="round" stroke-linejoin="round"/>
</g>
</g>
<path id="Vector_59" d="M181.414 22.1055C183.888 18.4917 184.734 13.6711 182.858 8.69971C181.513 5.13183 178.652 2.30508 175.077 0.980238C165.045 -2.72537 155.604 4.60058 155.604 14.1368C155.604 17.0947 156.516 19.8362 158.071 22.1055L158.084 22.1186C158.714 23.0368 159.455 23.8697 160.282 24.6109L169.31 33.6814C169.552 33.9241 169.946 33.9241 170.182 33.6814L179.217 24.6043C180.037 23.8632 180.778 23.0368 181.401 22.1186L181.414 22.1055ZM171.75 11.028C172.21 11.2838 172.597 11.6642 172.853 12.1167C174.808 15.5928 171.239 19.1803 167.735 17.2456C167.269 16.9898 166.882 16.5963 166.626 16.1306C164.724 12.6283 168.266 9.09978 171.75 11.028Z" fill="#FC5475"/>
<path id="Vector_60" d="M171.915 36.7774C171.915 37.9777 170.944 38.9484 169.743 38.9484C168.542 38.9484 167.571 37.9777 167.571 36.7774C167.571 35.5771 168.542 34.6064 169.743 34.6064C170.944 34.6064 171.915 35.5837 171.915 36.7774Z" fill="#FC5475"/>
</g>
<g id="Group_13">
<path id="Vector_61" d="M376.423 193.221H5.57674C2.49969 193.221 0 190.722 0 187.646C0 184.57 2.49969 182.071 5.57674 182.071H376.423C379.5 182.071 382 184.57 382 187.646C382 190.722 379.507 193.221 376.423 193.221Z" fill="#455875"/>
<g id="Group_14">
<g id="Group_15">
<path id="Vector_62" d="M5.57666 187.646H16.074" stroke="#DADFE5" stroke-width="3" stroke-linecap="round" stroke-linejoin="round"/>
<path id="Vector_63" d="M24.3013 187.645H361.819" stroke="#DADFE5" stroke-width="3" stroke-linecap="round" stroke-linejoin="round" stroke-dasharray="30.86 30.86"/>
<path id="Vector_64" d="M365.926 187.645H376.423" stroke="#DADFE5" stroke-width="3" stroke-linecap="round" stroke-linejoin="round"/>
</g>
</g>
</g>
<g id="Group_16">
<g id="Group_17">
<path id="Vector_65" d="M288.829 133.189C288.776 134.028 288.697 134.769 288.599 135.333C288.389 136.573 287.871 138.541 287.241 140.744C287.116 141.177 286.985 141.616 286.854 142.062C285.43 146.883 284.741 151.9 284.977 156.924C285.377 165.555 282.209 180.142 281.769 181.526C280.975 182.549 279.446 181.867 278.889 181.67C278.233 172.048 277.012 151.113 277.025 150.648C277.281 140.751 278.495 131.628 278.594 130.172C278.699 128.716 278.849 120.583 279.545 120.308C281.087 119.73 285.076 118.406 286.88 121.029C288.756 123.771 289.058 129.496 288.829 133.189Z" fill="#5539B4"/>
<path id="Vector_66" d="M288.829 133.189C288.776 134.028 288.697 134.769 288.599 135.333C288.389 136.573 287.871 138.54 287.241 140.744C287.051 137.629 286.69 128.971 286.69 128.971L288.829 133.189Z" fill="#3A2A87"/>
<path id="Vector_67" d="M306.045 179.348C306.045 180.338 305.98 180.863 303.342 180.856C303.618 181.237 293.842 158.905 292.353 154.72C292.261 154.452 291.88 153.337 291.762 152.956C291.06 150.766 288.764 139.596 287.675 135.235L284.578 121.213C284.578 121.213 280.353 121.783 283.377 121.606C287.222 121.377 292.025 119.461 292.025 119.461C298.435 124.931 299.025 131.221 298.756 134.363C298.651 135.648 298.717 141.092 298.664 142.62C298.461 147.88 299.373 153.153 301.558 157.947C305.396 166.349 305.737 176.534 306.045 179.348Z" fill="#5539B4"/>
<path id="Vector_68" d="M307.764 181.675C307.482 181.977 306.714 182.371 306.13 182.646C305.809 182.79 304.687 183.44 303.585 184.076C303.145 184.319 302.653 184.45 302.154 184.45H300.344C300.009 184.45 299.884 184.22 299.891 184.076C299.917 183.696 300.232 183.381 300.763 183.282C300.895 183.256 301.032 183.217 301.164 183.164C301.754 182.935 302.24 182.495 302.581 181.957C302.915 181.42 303.152 180.954 303.152 180.954C303.788 180.252 304.72 180.436 304.72 180.436C305.907 179.845 306.045 179.34 306.045 179.34C307.075 179.629 308.053 181.38 307.764 181.675Z" fill="#012851"/>
<path id="Vector_69" d="M281.77 181.518C281.77 181.518 281.402 181.899 280.084 181.853C280.084 181.853 279.349 181.249 278.45 181.571C278.45 181.571 277.125 182.732 276.18 182.922C275.242 183.112 274.139 183.224 273.884 183.637C273.628 184.05 273.726 184.319 273.726 184.319C273.726 184.319 273.661 184.496 274.809 184.542C275.957 184.588 279.637 184.431 280.28 184.463C280.917 184.496 281.776 184.509 282.177 184.385C282.577 184.26 282.537 182.26 281.77 181.518Z" fill="#012851"/>
</g>
<g id="Group_18">
<path id="Vector_70" d="M318.759 182.772C318.975 183.566 318.503 184.386 317.709 184.595C316.916 184.812 316.096 184.34 315.886 183.546C315.67 182.752 316.142 181.932 316.935 181.723C317.729 181.506 318.549 181.978 318.759 182.772Z" fill="#353535"/>
<path id="Vector_71" d="M311.661 150.163L306.255 151.613L301.006 132.081C300.934 131.806 301.098 131.524 301.374 131.452L305.783 130.264C306.058 130.192 306.34 130.356 306.412 130.625L311.661 150.163Z" stroke="#2D287C" stroke-width="0.8474" stroke-miterlimit="10"/>
<path id="Vector_72" d="M316.726 149.114L324.809 179.198C325.032 180.024 324.54 180.877 323.713 181.1L313.918 183.73C313.485 183.848 313.032 183.586 312.914 183.146L304.451 151.658C304.333 151.219 304.595 150.766 305.028 150.648L314.823 148.018C315.65 147.795 316.503 148.287 316.726 149.114Z" fill="#FCC000"/>
<path id="Vector_73" d="M316.726 149.114L324.809 179.198C325.032 180.024 324.54 180.877 323.713 181.1L317.625 182.733C317.185 182.851 316.732 182.589 316.614 182.149L308.151 150.661C308.033 150.222 308.295 149.769 308.735 149.651L314.823 148.018C315.65 147.795 316.503 148.287 316.726 149.114Z" fill="#FECE00"/>
<path id="Vector_74" d="M319.292 158.658L315.493 159.675C315.276 159.734 315.047 159.603 314.988 159.386L314.948 159.249C314.889 159.032 315.02 158.803 315.237 158.744L319.036 157.727L319.292 158.658Z" fill="#FCC000"/>
<path id="Vector_75" d="M320.321 162.493L316.523 163.51C316.306 163.569 316.076 163.438 316.017 163.221L315.978 163.084C315.919 162.867 316.05 162.638 316.267 162.579L320.065 161.562L320.321 162.493Z" fill="#FCC000"/>
<path id="Vector_76" d="M321.352 166.33L317.553 167.347C317.336 167.406 317.107 167.275 317.048 167.058L317.008 166.921C316.949 166.704 317.08 166.475 317.297 166.416L321.096 165.399L321.352 166.33Z" fill="#FCC000"/>
<path id="Vector_77" d="M322.381 170.168L318.583 171.184C318.366 171.243 318.137 171.112 318.077 170.896L318.038 170.758C317.979 170.541 318.11 170.312 318.327 170.253L322.126 169.236L322.381 170.168Z" fill="#FCC000"/>
<path id="Vector_78" d="M323.412 173.997L319.613 175.014C319.396 175.073 319.167 174.942 319.108 174.725L319.068 174.587C319.009 174.371 319.141 174.141 319.357 174.082L323.156 173.066L323.412 173.997Z" fill="#FCC000"/>
</g>
<g id="Group_19">
<g id="Group_20">
<g id="Group_21">
<path id="Vector_79" d="M296.571 108.522C296.447 109.204 296.263 110.149 296.066 111.205C295.508 114.143 294.833 117.908 294.833 119.049C294.833 119.442 294.892 119.777 294.964 120.065C295.174 120.918 295.567 121.364 295.272 121.698C295.075 121.928 294.609 122.131 293.98 122.302C293.77 122.361 293.54 122.413 293.297 122.466C291.073 122.925 287.557 125.837 285.68 125.365C279.972 123.928 278.693 122.584 278.798 121.764C279.008 120.092 279.283 117.357 279.283 112.195C279.283 104.489 278.758 94.5131 279.342 93.8507C280.497 92.8931 282.321 91.9618 284.158 91.3584C285.457 91.142 287.668 91.2404 289.997 91.8438C292.694 92.5455 295.836 93.1358 296.296 94.1589C296.742 95.1231 297.221 105.079 296.571 108.522Z" fill="#00B8F0"/>
</g>
<g id="Group_22">
<g id="Group_23">
<path id="Vector_80" d="M303.046 126.717C303.046 126.717 303.106 128.292 303.014 128.547C302.922 128.803 301.485 130.2 301.498 131.06C301.498 131.06 301.734 131.538 302.312 131.768C302.889 131.997 304.254 131.879 304.962 131.584C305.671 131.296 305.723 129.846 305.736 129.656C305.75 129.466 305.572 127.8 305.677 126.875" fill="#FFD5B0"/>
</g>
<g id="Group_24">
<path id="Vector_81" d="M302.095 129.741C302.095 129.741 301.459 130.568 301.347 131.21C301.256 131.722 301.203 131.86 301.465 131.892C301.734 131.925 302.121 131.604 302.351 131.204" fill="#FFD5B0"/>
</g>
<g id="Group_25">
<path id="Vector_82" d="M294.176 100.903C295.351 103.874 300.324 111.272 300.324 111.272L302.843 127.905C302.843 127.905 303.322 128.154 304.195 128.187C305.054 128.213 306.006 127.846 306.006 127.846C306.006 127.846 307.219 111.666 306.137 108.695C304.962 105.455 301.734 97.2695 296.715 94.0492C294.767 92.7966 290.765 92.0226 290.765 92.0226" fill="#00B8F0"/>
</g>
</g>
</g>
</g>
<path id="Vector_83" d="M295.941 111.868C295.941 111.868 294.281 118.466 298.46 127.116C298.46 127.116 292.293 128.126 286.185 128.618C280.077 129.11 277.82 127.556 277.82 127.556C277.82 127.556 278.948 121.259 279.047 119.862C279.145 118.466 286.749 116.459 286.749 116.459" fill="#00B8F0"/>
<g id="Group_26">
<g id="Group_27">
<path id="Vector_84" d="M256.28 103.355L254.076 102.83C254.076 102.83 253.623 102.581 252.869 101.721C252.114 100.862 251.025 100.961 250.802 100.974C250.572 100.987 250.553 101.275 250.959 101.551C251.228 101.735 251.701 101.649 251.858 102.279C251.93 102.561 251.137 102.574 250.723 102.43C250.316 102.292 248.919 101.63 248.565 101.479C248.21 101.328 247.909 101.557 248.84 102.24C249.706 102.876 249.995 103 250.323 103.191C250.323 103.197 250.52 103.61 250.651 103.774C250.684 103.82 250.749 103.853 250.815 103.886C250.868 103.991 251.018 104.293 251.123 104.424C251.143 104.443 251.163 104.463 251.196 104.483C251.281 104.66 251.36 104.837 251.438 104.981C251.727 105.558 252.842 105.395 253.334 105.335C253.827 105.27 255.926 105.749 255.926 105.749L256.28 103.355Z" fill="#FFD5B0"/>
<path id="Vector_85" d="M250.914 103.169C250.914 103.169 250.337 103.149 249.51 102.874C248.683 102.598 247.633 102.008 247.417 101.988C247.2 101.962 247.181 102.237 247.417 102.454C247.66 102.67 248.335 103.064 248.723 103.254C249.182 103.484 251.176 103.995 251.176 103.995" fill="#FFD5B0"/>
<path id="Vector_86" d="M251.203 103.748C251.203 103.748 250.625 103.794 249.772 103.617C248.92 103.439 247.811 102.974 247.588 102.974C247.371 102.974 247.378 103.249 247.64 103.439C247.903 103.63 248.624 103.938 249.024 104.089C249.503 104.266 251.55 104.771 251.55 104.771" fill="#FFD5B0"/>
<path id="Vector_87" d="M251.891 104.601C251.891 104.601 251.314 104.647 250.461 104.47C249.608 104.293 248.499 103.827 248.276 103.827C248.06 103.827 248.066 104.102 248.329 104.293C248.591 104.483 249.313 104.791 249.713 104.942C250.192 105.119 252.239 105.401 252.239 105.401" fill="#FFD5B0"/>
</g>
<path id="Vector_88" d="M279.972 103.046C279.677 103.249 279.349 103.459 279.014 103.676C279.014 103.676 275.806 106.647 272.827 108.463C271.515 109.27 270.249 109.841 269.324 109.841C265.63 109.841 255.061 105.748 255.061 105.748L255.533 103.053L268.582 104.2C271.364 100.875 279.336 93.8509 279.336 93.8509L279.841 101.177L279.972 103.046Z" fill="#00B8F0"/>
</g>
<path id="Vector_89" d="M278.981 103.709C278.62 104.037 275.616 106.759 272.827 108.464C274.933 106.582 277.787 103.355 278.962 101.997C278.968 102.561 278.975 103.132 278.981 103.709Z" fill="#0096D1"/>
<g id="Group_28">
<path id="Vector_90" d="M289.997 91.8269C289.99 91.8334 287.373 93.8076 284.158 91.3546C284.158 91.3546 284.564 90.5742 284.637 90.4364C284.82 90.1216 285.168 89.4526 285.385 88.5016C285.404 88.4361 285.417 88.3639 285.437 88.2918C285.496 88.0098 285.542 87.6949 285.575 87.367C285.634 86.7964 285.627 86.1602 285.529 85.4716L285.837 85.2223L290.968 81.1888L291.552 80.7363C291.552 80.7363 291.381 81.7135 291.152 83.1498C291.02 83.9631 290.869 84.9207 290.719 85.9241C290.41 87.9704 290.122 90.2134 289.997 91.8269Z" fill="#FFD5B0"/>
<path id="Vector_91" d="M289.197 86.0418C288.455 87.1109 286.802 89.2426 284.637 90.4364C284.82 90.1215 285.168 89.4525 285.385 88.5014C285.044 88.6064 284.735 88.6589 284.44 88.6851C284.453 88.449 284.466 88.2063 284.46 87.9505L284.801 87.7472L285.568 87.3733L289.623 85.3991C289.623 85.3925 289.479 85.6417 289.197 86.0418Z" fill="#FFB985"/>
<path id="Vector_92" d="M281.1 77.6653C281.1 77.6653 280.208 80.1118 281.802 81.5023L282.563 77.7768L281.1 77.6653Z" fill="#3F49A5"/>
<path id="Vector_93" d="M290.036 85.005C289.78 85.3657 289.498 85.7133 289.196 86.0412C289.196 86.0412 289.196 86.0412 289.19 86.0478C288.698 86.5856 288.134 87.0709 287.523 87.4841C286.736 88.0154 286.021 88.3302 285.378 88.5007C285.037 88.6057 284.728 88.6581 284.433 88.6844C283.069 88.8024 282.275 88.2777 282.275 88.2777C280.995 86.3823 281.041 83.3063 281.336 80.9714C281.448 80.027 281.612 79.2072 281.73 78.63C281.842 78.1119 281.927 77.7971 281.927 77.7971C281.933 77.7774 281.934 77.7577 281.94 77.7381C282.498 74.7211 286.526 74.6162 289.295 76.3148C289.459 76.4132 289.61 76.5182 289.761 76.6362C290.528 77.1871 291.171 77.902 291.552 78.735C292.201 80.1582 291.801 81.7782 291.138 83.1555C291.099 83.2276 291.066 83.2998 291.027 83.3719C290.725 83.9818 290.364 84.5393 290.036 85.005Z" fill="#FFD5B0"/>
<path id="Vector_94" d="M290.2 76.0774C290.2 76.0774 286.913 81.141 281.409 78.478C279.801 77.6975 279.44 72.2207 280.851 73.3161C283.751 75.5593 286.028 71.2894 288.816 72.7258C289.708 73.1915 290.587 74.3196 290.2 76.0774Z" fill="#3F49A5"/>
<path id="Vector_95" d="M289.111 76.721C289.111 76.721 287.202 86.6573 289.223 82.0925C289.223 82.0925 289.735 80.8201 290.66 80.9382C291.585 81.0562 290.843 84.4733 290.712 85.9227C290.712 85.9227 292.831 84.4077 293.612 79.9019C294.393 75.3962 291.362 73.5401 289.682 75.4945L289.111 76.721Z" fill="#3F49A5"/>
<path id="Vector_96" d="M290.476 81.6461C290.476 81.6461 289.957 81.7183 289.846 82.6693C289.734 83.6204 290.351 83.8106 290.469 83.3121C290.594 82.8071 290.128 82.5053 290.023 82.7152C290.023 82.7152 289.898 82.1643 290.476 81.6461Z" fill="#FFB985"/>
</g>
</g>
<g id="Group_29">
<g id="Group_30">
<g id="Group_31">
<path id="Vector_97" d="M68.5806 171.369L68.4429 176.589C68.4429 177.383 68.7775 177.993 69.2892 178.727C69.4467 178.95 71.7823 182.295 71.9923 182.623C71.9267 182.754 69.9715 183.587 67.6818 180.295C66.7764 178.99 66.0744 178.327 66.0744 178.327L64.8672 171.651" fill="#FFD5B0"/>
<path id="Vector_98" d="M66.0154 177.909C66.0154 177.909 66.5468 178.099 67.216 178.853C67.8852 179.601 69.1974 181.785 69.8666 182.205C70.5358 182.625 71.848 182.356 71.848 182.356C71.848 182.356 74.9381 184.127 74.761 184.514C74.6167 184.822 74.2886 184.855 74.118 184.874C73.0617 184.992 69.7026 184.874 69.7026 184.874C69.7026 184.874 68.5019 184.717 68.1542 183.713C67.8065 182.716 66.245 181.162 65.6545 180.664C65.0575 180.158 65.2018 178.958 66.0154 177.909Z" fill="#1B2072"/>
<path id="Vector_99" d="M65.3984 180.301C65.3984 180.301 65.5493 181.284 65.6018 182.235C65.6542 183.186 65.7133 184.872 65.7133 184.872H66.0675C66.0675 184.872 66.0215 181.921 66.3036 181.002C66.5856 180.084 65.3984 180.301 65.3984 180.301Z" fill="#1B2072"/>
</g>
<g id="Group_32">
<path id="Vector_100" d="M52.0994 171.571L50.8069 175.27C50.5969 175.866 50.5379 176.509 50.6232 177.139C50.7216 177.827 50.8462 178.739 50.8987 179.336C50.9906 180.412 50.8922 181.841 50.1901 182.117C49.4816 182.386 48.1497 180.326 47.6839 179.152C47.2181 177.985 47.0409 176.109 47.159 175.381C47.2771 174.653 47.8217 174.745 48.0119 174.286C48.2022 173.827 49.0092 170.554 49.0092 170.554" fill="#FFD5B0"/>
<path id="Vector_101" d="M48.0117 174.278C48.0117 174.278 47.6049 174.803 47.8346 175.8C48.0642 176.797 48.4185 177.63 48.5694 178.443C48.7203 179.256 49.2583 181.217 50.203 181.506C51.1478 181.795 50.8985 179.191 50.8985 179.191C50.8985 179.191 51.2331 181.106 51.2725 181.873C51.3053 182.542 51.5808 183.487 51.5546 183.88C51.5283 184.274 51.1084 184.503 50.3867 184.156C49.665 183.801 47.8149 182.667 47.4606 181.893C47.1063 181.112 47.5 179.715 47.1194 178.561C46.7389 177.407 46.2993 176.554 46.5552 175.603C46.8045 174.652 48.0117 174.278 48.0117 174.278Z" fill="#1B2072"/>
<path id="Vector_102" d="M46.6406 175.847C46.6406 175.847 45.5977 178.91 45.2173 179.487C45.2173 179.487 45.3354 179.638 45.5387 179.671C45.5387 179.671 46.3126 177.906 47.08 176.969" fill="#1B2072"/>
</g>
<g id="Group_33">
<path id="Vector_103" d="M69.3547 150.473V150.427C69.4335 144.229 67.8064 126.206 67.2028 120.526L56.4495 118.04C51.2402 129.092 56.6529 131.833 57.906 134.279C58.5555 135.552 59.4019 139.736 60.4516 143.888C60.5041 144.084 60.55 144.294 60.6091 144.491C61.1865 146.774 61.8294 149.003 62.5314 150.689V150.696C62.7217 151.161 62.8004 151.66 62.7479 152.158C62.5577 153.949 62.269 157.457 62.6889 160.835C63.5484 167.774 65.2476 174.123 65.2476 174.123C65.2476 174.123 67.5505 174.195 68.6199 173.697C68.6265 173.69 69.4531 155.332 69.3547 150.473Z" fill="#1B2072"/>
<path id="Vector_104" d="M60.6094 144.486C61.1866 146.768 61.8293 148.998 62.5312 150.683C63.7511 144.197 63.4494 131.027 63.4494 131.027L60.6094 144.486Z" fill="#0F0C59"/>
<path id="Vector_105" d="M52.0538 120.177C52.0538 120.177 49.4361 124.736 49.8035 128.776C50.0725 131.655 51.8111 141.781 52.6771 148.333C52.9592 150.452 52.7165 152.603 51.9685 154.603C51.3059 156.381 50.5842 158.552 50.2824 160.303C49.541 164.618 48.8193 170.915 48.8193 170.915C48.8193 170.915 50.4136 171.964 52.2375 171.649C52.2375 171.649 57.8668 159.044 59.0149 154.682C59.0149 154.676 59.0215 154.669 59.0215 154.662C59.6448 152.157 61.5474 142.162 62.6168 134.718C63.6863 127.274 64.0471 119.777 64.0471 119.777L52.0538 120.177Z" fill="#1B2072"/>
</g>
</g>
<path id="Vector_106" d="M62.5446 86.3283C62.5446 86.3283 62.4659 86.5578 62.3478 86.9317C62.2231 87.3383 62.046 87.9155 61.8951 88.5452C61.6589 89.5028 61.4621 90.585 61.5211 91.3656C61.5211 91.3656 58.3522 90.8343 56.8826 89.9095C56.8826 89.9095 57.9848 87.1744 56.6792 83.6719L62.5446 86.3283Z" fill="#FFD5B0"/>
<path id="Vector_107" d="M62.3476 86.9393C62.2229 87.346 62.0458 87.9232 61.8949 88.5528C59.3033 87.7133 57.8271 85.3979 57.8271 85.3979L62.3476 86.9393Z" fill="#FFB985"/>
<path id="Vector_108" d="M57.1518 85.3973C58.3327 86.7681 64.9592 89.5358 65.8777 86.2565C66.7963 82.9772 66.3501 79.088 65.8843 76.7203C65.5891 75.2512 64.8083 72.4572 60.8849 72.8835C56.9878 73.3098 51.9818 79.3897 57.1518 85.3973Z" fill="#FFD5B0"/>
<path id="Vector_109" d="M55.2097 76.3596C55.2097 76.3596 52.0277 76.6547 51.4372 74.628C50.8467 72.6013 53.1102 70.0105 55.1113 71.0796C57.1124 72.1487 56.8958 74.7658 56.8958 74.7658" fill="#15004D"/>
<path id="Vector_110" d="M53.8384 76.615C53.8384 76.615 54.1729 73.5913 57.0457 73.0469L55.97 74.831L53.8384 76.615Z" fill="#406AFF"/>
<path id="Vector_111" d="M65.3987 75.861C65.3987 75.861 64.303 80.5635 57.775 80.7603C57.775 80.7603 57.132 80.5766 56.8827 81.1472C56.7449 81.4686 56.6924 81.9933 56.8565 82.5048C57.2567 83.7641 57.5125 85.0627 57.3026 86.3678L57.3157 86.5187C57.3157 86.5187 54.0746 86.1121 53.1955 81.4489C52.1786 76.0512 57.0926 71.6963 60.4518 72.2144C61.8624 72.4308 65.0969 73.6179 65.3987 75.861Z" fill="#15004D"/>
<path id="Vector_112" d="M63.3058 75.7574C63.3058 75.7574 65.3396 78.558 66.9208 78.6368C66.9208 78.6368 67.426 74.826 65.2675 73.2781C62.3151 71.1661 58.9756 72.2745 58.9756 72.2745" fill="#15004D"/>
<path id="Vector_113" d="M56.8824 89.9106C56.8824 89.9106 56.5347 90.7698 56.0033 91.1109C55.2094 91.6159 54.5402 91.7733 53.8447 92.0488C53.8447 92.0488 60.0775 96.5221 64.6833 91.7602C64.6833 91.7602 63.0168 91.2486 62.551 90.9141C61.4356 90.1074 61.6522 89.7073 61.6522 89.7073" fill="#FFD5B0"/>
<path id="Vector_114" d="M65.1035 101.571C65.1035 101.571 66.1861 104.883 67.0783 107.363C67.5573 108.694 68.1281 109.691 68.2921 109.901C68.7579 110.498 69.3878 111.226 70.5097 110.629C71.6316 110.032 71.8022 109.514 71.6053 108.373C71.3954 107.192 69.4927 100.483 69.4927 100.483" fill="#FFD5B0"/>
<path id="Vector_115" d="M67.0781 107.364C67.0781 107.364 68.6265 112.617 70.8441 112.125C71.9922 111.823 73.9998 107.429 74.9052 105.691C77.7527 100.202 77.9757 98.9686 77.9757 98.9686L76.5389 98.2996C76.5389 98.2996 70.8441 105.612 70.3979 106.308" fill="#FFD5B0"/>
<path id="Vector_116" d="M67.6292 122.579C60.6091 124.14 53.5496 123.228 50.6234 122.716C50.899 121.169 51.3517 120.1 51.7322 118.624C52.8804 114.098 52.349 108.865 51.9422 105.762C51.7847 104.516 51.6404 103.618 51.6404 103.244C51.6338 102.949 51.6141 102.562 51.5879 102.122C51.3779 99.4334 50.6825 94.6194 50.6234 93.9767C50.5513 93.229 54.888 91.5828 54.888 91.5828C54.888 91.5828 62.5642 96.2131 63.0563 91.1368C63.0563 91.1368 65.1886 91.7992 66.855 92.6518C67.1765 94.8686 67.3405 99.6826 67.4061 102.175C67.4324 103.126 66.6057 104.916 66.6057 104.916C66.6057 104.916 66.7304 112.413 67.1109 117.883C67.2487 119.863 67.7342 121.811 67.6292 122.579Z" fill="#FF5476"/>
<path id="Vector_117" d="M53.7789 99.6877C53.7789 99.6877 53.6805 103.538 53.2017 105.565C53.2017 105.565 52.7294 105.768 51.9489 105.761C51.7915 104.515 51.6472 103.617 51.6472 103.243C51.6406 102.947 51.621 102.561 51.5947 102.121L53.7789 99.6877Z" fill="#D83D62"/>
<path id="Vector_118" d="M63.8631 115.744L61.5012 114.937C61.4422 114.918 61.4094 114.852 61.4291 114.793L63.1546 109.775C63.1743 109.716 63.2399 109.684 63.2989 109.703L65.6608 110.51C65.7199 110.53 65.7527 110.595 65.733 110.654L64.0075 115.672C63.9878 115.731 63.9222 115.764 63.8631 115.744Z" fill="#0831AE"/>
<path id="Vector_119" d="M62.2228 112.523L62.0457 114.405C62.0457 114.405 62.0064 114.445 61.6653 114.445C61.6259 114.372 61.6194 114.294 61.6456 114.215L62.2228 112.523Z" fill="#0831AE"/>
<g id="Group_34">
<g id="Group_35">
<path id="Vector_120" d="M48.4187 101.231C48.4187 101.231 48.0184 104.694 47.7888 107.317C47.6642 108.727 47.7691 109.875 47.8282 110.131C47.9988 110.865 48.2678 111.79 49.5406 111.718C50.8134 111.646 51.1808 111.246 51.476 110.131C51.7844 108.97 52.8604 102.083 52.8604 102.083" fill="#FFD5B0"/>
<path id="Vector_121" d="M47.7753 107.448C47.7753 107.448 47.2963 111.338 48.5888 112.564C49.4286 113.109 51.3312 113.253 53.2798 113.443C59.4339 114.04 60.6608 113.791 60.6608 113.791L60.7461 112.21C60.7461 112.21 51.8364 109.646 51.0294 109.488" fill="#FFD5B0"/>
<path id="Vector_122" d="M62.5631 111.541L62.3138 112.269L62.2482 112.296L62.2285 112.519L62.0515 114.401C62.0515 114.401 62.0121 114.44 61.671 114.44H61.4808C60.9561 114.427 60.5101 113.922 59.4541 113.844L59.8673 111.955C59.8673 111.955 60.5363 112.165 61.1988 111.942C61.5267 111.83 61.9006 111.574 62.0908 111.509C62.1498 111.496 62.3401 111.509 62.5631 111.541Z" fill="#FFD5B0"/>
</g>
</g>
<path id="Vector_123" d="M62.0721 112.222C62.0721 112.222 63.3318 112.596 63.6139 112.609C63.8895 112.622 64.6768 112.392 64.972 112.366C65.2673 112.333 65.451 112.537 65.4707 112.583C65.5166 112.694 64.3619 113.265 63.6795 113.324C62.9972 113.389 61.9409 113.107 61.9409 113.107" fill="#FFD5B0"/>
<path id="Vector_124" d="M61.8231 112.648C61.8231 112.648 63.0828 113.022 63.3649 113.035C63.6405 113.048 64.4278 112.819 64.723 112.792C65.0183 112.76 65.202 112.963 65.2216 113.009C65.2676 113.12 64.1129 113.691 63.4305 113.75C62.7482 113.816 61.6919 113.534 61.6919 113.534" fill="#FFD5B0"/>
<path id="Vector_125" d="M61.6981 113.063C61.6981 113.063 62.9578 113.436 63.2399 113.45C63.5155 113.463 64.3028 113.233 64.598 113.207C64.8933 113.174 65.077 113.377 65.0966 113.423C65.1426 113.535 63.9879 114.105 63.3055 114.165C62.6232 114.23 61.5669 113.948 61.5669 113.948" fill="#FFD5B0"/>
<path id="Vector_126" d="M61.4491 113.506C61.4491 113.506 62.7088 113.88 62.9909 113.893C63.2665 113.907 64.0538 113.677 64.349 113.651C64.6442 113.618 64.8279 113.821 64.8476 113.867C64.8935 113.979 63.7388 114.549 63.0565 114.608C62.3742 114.674 61.3179 114.392 61.3179 114.392" fill="#FFD5B0"/>
<path id="Vector_127" d="M58.4304 80.9439C58.4304 80.9439 58.2337 79.4943 56.9284 79.9732C55.9052 80.347 56.5939 82.2688 56.9744 82.9181C57.3613 83.5675 58.1353 83.3969 58.2468 82.9116" fill="#FFD5B0"/>
<path id="Vector_128" d="M70.8509 104.363C70.8509 104.363 69.7356 104.894 67.6886 105.124C67.354 105.17 66.9997 105.202 66.6126 105.222C66.547 105.222 66.488 105.229 66.4223 105.229C66.4223 105.229 65.5957 102.441 65.4054 99.1487C65.2742 96.9188 67.0391 93.8822 66.8619 92.6426C68.8105 93.469 70.8509 104.363 70.8509 104.363Z" fill="#FF5476"/>
<path id="Vector_129" d="M51.8499 92.9337C51.8499 92.9337 48.7925 94.1798 47.933 98.7118C47.1261 102.942 46.9883 104.687 46.9883 104.687C46.9883 104.687 50.5574 105.808 52.7159 105.218C53.1227 103.821 53.8378 99.3283 53.8378 99.3283" fill="#FF5476"/>
<path id="Vector_130" d="M65.6284 96.507C65.6284 96.507 66.6385 98.7108 67.1567 100.219C67.6683 101.728 66.6123 104.909 66.6123 104.909C66.6123 104.909 67.7666 102.869 67.6223 100.705C67.5764 100.049 67.196 99.5176 66.9337 98.9338C66.3368 97.6089 65.6284 96.507 65.6284 96.507Z" fill="#D83D62"/>
<path id="Vector_131" d="M80.9017 95.1235C80.7968 95.0251 80.6655 95.1629 80.6065 95.2285C80.554 95.2875 80.2456 95.845 80.2456 95.845C80.1341 95.9696 80.016 96.1074 79.9242 96.2189C80.0291 96.0811 80.1604 95.904 80.2916 95.7138C80.4097 95.5367 80.5146 95.2678 80.5737 94.9858C80.6524 94.6054 80.6655 94.2184 80.6131 94.1462C80.5409 94.0544 80.2653 94.2381 80.2194 94.7562C80.0882 95.0252 79.9373 95.3203 79.7798 95.504C79.5043 95.8253 79.2746 96.1271 79.2746 96.1271C79.2746 96.1271 79.4649 95.8844 79.688 95.5368C79.8257 95.3269 79.9635 95.0317 80.0291 94.7956C80.1669 94.3102 80.2391 93.9888 80.1538 93.9167C80.0619 93.8314 79.8586 93.8904 79.747 94.3037C79.6158 94.6316 79.4977 94.8218 79.3927 95.0645C79.0647 95.458 78.8875 95.7138 78.8875 95.7138C78.8875 95.7138 79.1041 95.3531 79.2418 94.9202C79.3206 94.6644 79.3862 94.4283 79.3927 94.3627C79.4124 94.0741 79.4583 93.733 79.2222 93.733C79.1303 93.733 78.9335 94.1856 78.8023 94.5988C78.448 95.2809 77.9165 95.9828 77.7722 96.0943C77.5426 96.2779 77.3523 96.4157 77.2276 96.0943C77.103 95.7729 77.3785 95.1432 77.2539 94.7956C77.1292 94.448 76.834 94.5332 76.834 94.5332C76.4141 95.3006 76.4075 97.4192 76.3682 98.1866C76.3616 98.3506 76.0073 98.954 76.0073 98.954L77.6738 99.8001C77.7591 99.5574 78.4348 98.4358 78.7366 98.3046C79.0384 98.1735 79.6355 97.4913 79.852 97.1437C79.9832 96.9273 80.3441 96.4222 80.5474 96.0287C80.5606 96.0352 81.0395 95.2482 80.9017 95.1235Z" fill="#FFD5B0"/>
<g id="Group_36">
<path id="Vector_132" d="M65.0445 76.268C65.0445 76.268 65.0314 76.8255 64.7033 77.5929C64.6312 77.7897 64.5131 77.9799 64.4015 78.1898C64.2638 78.3866 64.1391 78.6096 63.962 78.7998C63.7979 79.0031 63.5946 79.1868 63.3912 79.3704C63.1878 79.5541 62.945 79.7049 62.7154 79.8623C62.4661 79.9804 62.2233 80.1312 61.9675 80.2231C61.705 80.3083 61.4623 80.4198 61.2064 80.4723C60.9505 80.5313 60.7078 80.5838 60.4716 80.6232C60.2354 80.6428 60.0123 80.6625 59.8024 80.6822C59.389 80.7347 59.0479 80.6691 58.8051 80.6756C58.5689 80.6625 58.4312 80.656 58.4312 80.656C58.4312 80.656 58.5689 80.6428 58.8051 80.6232C59.0413 80.5969 59.3825 80.6101 59.7827 80.5313C59.9861 80.4985 60.2026 80.4658 60.4322 80.433C60.6553 80.3739 60.8915 80.3149 61.1342 80.2493C61.377 80.1903 61.6132 80.0788 61.8625 79.9869C62.1118 79.8951 62.3349 79.7443 62.5711 79.6262C62.7941 79.4819 63.0238 79.3442 63.2206 79.1736C63.4174 79.0031 63.6142 78.8326 63.7783 78.6424C64.1194 78.2751 64.3819 77.8815 64.5656 77.5208C64.9461 76.8124 65.0445 76.268 65.0445 76.268Z" fill="#15004D"/>
</g>
<path id="Vector_133" d="M57.7089 82.8656C57.7089 83.036 57.5713 83.1736 57.4008 83.1736C57.2304 83.1736 57.0928 83.036 57.0928 82.8656C57.0928 82.6951 57.2304 82.5575 57.4008 82.5575C57.5713 82.5575 57.7089 82.6951 57.7089 82.8656Z" fill="white"/>
<path id="Vector_134" d="M57.0532 80.8528C57.0532 80.8528 57.414 80.6888 57.6829 81.0758C58.0305 81.5808 57.9452 82.1121 57.5517 82.0334C57.3353 81.9941 57.309 81.6858 57.4074 81.5087C57.5124 81.3119 57.7222 81.3775 57.7222 81.3775C57.7222 81.3775 57.5845 80.7807 57.0532 80.8528Z" fill="#FFB985"/>
<path id="Vector_135" d="M67.688 105.125C67.3535 105.171 66.9993 105.204 66.6123 105.223V104.908C66.6123 104.908 66.9468 104.18 67.078 103.721C67.1895 103.315 67.3666 102.567 67.4125 102.383C67.4059 102.495 67.3928 102.816 67.4191 103.308C67.4322 103.8 67.6093 104.744 67.688 105.125Z" fill="#D83D62"/>
</g>
<g id="Group_37">
<g id="Group_38">
<path id="Vector_136" d="M312.074 79.297H300.573C299.884 79.297 299.32 78.7395 299.32 78.0443V69.9575C299.32 69.2689 299.878 68.7048 300.573 68.7048H312.074C312.763 68.7048 313.327 69.2623 313.327 69.9575V78.0443C313.327 78.7329 312.763 79.297 312.074 79.297Z" fill="#6CE3FF"/>
<path id="Vector_137" d="M302.292 78.4782C302.292 78.4782 302.718 82.4661 300.284 82.8793C300.284 82.8793 305.146 83.9878 305.034 78.4782" fill="#6CE3FF"/>
</g>
<g id="Group_39">
<path id="Vector_138" d="M303.013 74.0043C303.013 74.4438 302.658 74.798 302.219 74.798C301.779 74.798 301.425 74.4438 301.425 74.0043C301.425 73.5649 301.779 73.2107 302.219 73.2107C302.658 73.2107 303.013 73.5649 303.013 74.0043Z" fill="#EEFAFF"/>
<path id="Vector_139" d="M307.12 74.0037C307.12 74.4431 306.766 74.7973 306.326 74.7973C305.887 74.7973 305.533 74.4431 305.533 74.0037C305.533 73.5642 305.887 73.21 306.326 73.21C306.766 73.2035 307.12 73.5642 307.12 74.0037Z" fill="#EEFAFF"/>
<path id="Vector_140" d="M311.227 74.0037C311.227 74.4431 310.873 74.7973 310.434 74.7973C309.994 74.7973 309.64 74.4431 309.64 74.0037C309.64 73.5642 309.994 73.21 310.434 73.21C310.867 73.2035 311.227 73.5642 311.227 74.0037Z" fill="#EEFAFF"/>
</g>
</g>
<g id="Group_40">
<g id="Group_41">
<g id="Group_42">
<path id="Vector_141" d="M90.7697 75.6232H102.271C102.96 75.6232 103.524 75.0657 103.524 74.3705V66.2838C103.524 65.5951 102.966 65.0311 102.271 65.0311H90.7697C90.0808 65.0311 89.5166 65.5885 89.5166 66.2838V74.3705C89.5232 75.0657 90.0808 75.6232 90.7697 75.6232Z" fill="#6CE3FF"/>
<path id="Vector_142" d="M100.552 74.8052C100.552 74.8052 100.125 78.7931 102.56 79.2063C102.56 79.2063 97.698 80.3148 97.8095 74.8052" fill="#6CE3FF"/>
</g>
<g id="Group_43">
<path id="Vector_143" d="M99.8301 70.33C99.8301 70.7695 100.184 71.1237 100.624 71.1237C101.063 71.1237 101.417 70.7695 101.417 70.33C101.417 69.8906 101.063 69.5364 100.624 69.5364C100.191 69.5364 99.8301 69.8906 99.8301 70.33Z" fill="#EEFAFF"/>
<path id="Vector_144" d="M95.7231 70.33C95.7231 70.7695 96.0773 71.1237 96.5168 71.1237C96.9562 71.1237 97.3104 70.7695 97.3104 70.33C97.3104 69.8906 96.9562 69.5364 96.5168 69.5364C96.0839 69.5364 95.7231 69.8906 95.7231 70.33Z" fill="#EEFAFF"/>
<path id="Vector_145" d="M91.6221 70.3295C91.6221 70.769 91.9763 71.1232 92.4157 71.1232C92.8552 71.1232 93.2094 70.769 93.2094 70.3295C93.2094 69.8901 92.8552 69.5359 92.4157 69.5359C91.9763 69.5359 91.6221 69.8901 91.6221 70.3295Z" fill="#EEFAFF"/>
</g>
</g>
<g id="Group_44">
<g id="Group_45">
<path id="Vector_146" d="M114.139 180.772C114.139 180.772 114.769 181.408 114.914 182.359C115.051 183.31 114.789 184.104 114.789 184.314C114.789 184.524 113.943 184.72 112.781 184.733C111.62 184.753 111.016 184.471 110.544 184.399C110.065 184.327 108.025 184.701 107.021 184.733C106.017 184.766 104.607 184.642 104.18 184.451C103.76 184.255 103.524 183.068 105.656 182.89C106.89 182.785 108.392 182.084 109.429 181.579C110.183 181.211 110.557 180.942 110.557 180.942C110.557 180.942 110.675 180.3 110.905 180.319C111.253 180.346 112.092 180.864 112.624 180.877C113.247 180.896 113.877 180.883 114.139 180.772Z" fill="#012851"/>
</g>
<g id="Group_46">
<path id="Vector_147" d="M130.023 180.773C130.023 180.773 130.653 181.409 130.798 182.36C130.935 183.311 130.673 184.105 130.673 184.314C130.673 184.524 129.827 184.721 128.665 184.734C127.504 184.754 126.9 184.472 126.428 184.4C125.949 184.328 124.886 184.662 123.882 184.695C122.879 184.728 120.484 184.642 120.064 184.452C119.644 184.255 120.536 182.812 122.669 182.635C123.902 182.53 124.132 182.281 125.168 181.776C125.582 181.573 126.002 181.297 126.297 181.081C126.546 180.904 126.494 180.484 126.671 180.405C127.064 180.228 127.511 180.845 128.344 180.877C129.026 180.904 129.735 180.891 130.023 180.773Z" fill="#012851"/>
</g>
<path id="Vector_148" d="M108.642 152.898C108.819 156.938 110.137 172.029 110.898 180.326C112.499 181.637 113.431 180.923 114.14 180.772C114.376 177.335 115.412 170.475 115.885 166.913C116.501 162.204 117.105 157.646 116.2 154.281C115.872 153.062 115.845 151.783 116.246 150.582C116.278 150.484 116.311 150.386 116.344 150.281L116.351 150.274C116.357 150.254 116.37 150.222 116.377 150.195C116.456 149.946 116.541 149.684 116.626 149.422C116.639 149.402 116.646 149.389 116.646 149.363C117.86 145.723 119.395 141.053 120.267 137.78C120.668 143.479 121.206 151.665 121.494 153.606C121.527 153.835 121.566 154.045 121.606 154.242C122.262 158.472 125.483 172.095 126.782 180.555C128.016 181.257 128.298 181.539 130.017 180.778C129.925 177.833 130.85 171.111 130.916 168.022C131.001 164.251 131.06 160.512 130.246 157.292C129.492 154.314 129.243 151.238 129.735 148.208C130.411 144.03 131.178 139.249 131.362 136.298C131.69 135.052 134.032 124.978 126.12 118.334C126.12 118.334 119.296 120.38 114.94 120.623C111.502 120.82 110.629 121.711 110.629 121.711C110.629 121.711 109.987 128.021 109.462 134.074C109.225 139.492 108.845 148.569 108.681 150.694C108.635 151.192 108.642 151.645 108.681 152.052C108.648 152.307 108.622 152.589 108.642 152.898Z" fill="#252BA2"/>
<path id="Vector_149" d="M116.646 149.362C117.859 145.722 119.395 141.052 120.267 137.78L119.723 130.401C119.729 130.401 118.312 143.827 116.646 149.362Z" fill="#172577"/>
<path id="Vector_150" d="M106.942 96.6707L100.309 108.207C100.309 108.207 99.7385 111.441 103.347 110.798C106.955 110.155 111.87 100.862 111.87 100.862" fill="#FFD5B0"/>
<path id="Vector_151" d="M108.569 106.122C108.569 106.122 106.063 109.447 104.981 110.26C104.108 110.922 102.678 111.631 101.444 110.818C100.211 110.004 94.1683 104.928 89.5166 99.5958C89.5166 99.5958 90.2317 98.9006 90.9141 98.0217C90.9141 98.0217 93.4531 100.18 96.7532 101.931C100.06 103.682 102.796 105.971 102.796 105.971" fill="#FFD5B0"/>
<path id="Vector_152" d="M103.787 101.216C103.787 101.216 105.624 103.498 108.576 104.633C109.094 104.83 109.645 105 110.236 105.105L110.078 97.3069L109.947 90.9581C109.941 90.9581 105.112 98.4546 103.787 101.216Z" fill="#9FDEF7"/>
<path id="Vector_153" d="M108.569 104.634C109.087 104.831 109.638 105.001 110.229 105.106L110.071 97.3076C109.606 99.0785 108.924 101.925 108.569 104.634Z" fill="#7FD5EF"/>
<path id="Vector_154" d="M130.804 104.811C131.132 100.718 131.696 95.9893 131.808 93.3593C131.316 92.5132 130.778 91.8246 130.246 91.2605C128.665 89.5684 127.136 88.9978 126.907 88.9257C126.887 88.9191 126.88 88.9126 126.88 88.9126C124.532 88.2764 121.894 87.8829 120.267 87.8304C115.583 87.6861 111.056 89.7586 109.947 90.9523C109.474 91.4573 109.652 96.2451 109.999 101.662C109.98 103.978 110.662 108.772 110.721 113.055C110.793 118.551 110.249 123.424 110.249 123.424C119.526 126.415 130.686 123.24 130.686 123.24C130.22 121.929 129.905 119.561 129.695 117.18L130.679 106.627C130.705 106.044 130.751 105.434 130.804 104.811Z" fill="#9FDEF7"/>
<g id="Group_47">
<path id="Vector_155" d="M111.659 73.9904C111.659 73.9904 111.089 78.5816 112.584 79.0473C114.079 79.513 113.902 77.5191 113.902 77.5191L113.909 75.3087" fill="#012851"/>
<path id="Vector_156" d="M123.108 88.8795C123.108 88.8795 121.718 91.3259 117.584 90.8209C113.425 90.3093 115.99 88.1778 115.99 88.1778C115.99 88.1778 116.187 87.5612 116.423 86.748C116.653 85.9544 116.922 84.9706 117.086 84.1967L118.621 82.9046L121.875 80.1631C121.875 80.1697 121.455 86.7677 123.108 88.8795Z" fill="#FFD5B0"/>
<path id="Vector_157" d="M120.635 82.9099C120.635 82.9099 119.329 85.7958 116.423 86.7469C116.652 85.9532 116.921 84.9694 117.086 84.1954L118.621 82.9033L120.635 82.9099Z" fill="#FFB985"/>
<path id="Vector_158" d="M112.289 75.3893C112.289 75.3893 111.784 84.5451 114.565 85.5552C114.565 85.5552 117.656 86.211 120.332 83.2728C121.107 82.4267 121.671 81.4167 122.058 80.3411C122.694 78.5965 123.672 75.35 123.049 73.2709C122.176 70.3195 113.096 68.4897 112.289 75.3893Z" fill="#FFD5B0"/>
<path id="Vector_159" d="M112.971 73.3426C112.971 73.3426 115.169 73.1459 116.828 73.9132C118.488 74.6806 117.386 77.5008 118.679 78.8519C119.971 80.2029 124.314 78.76 124.314 78.76C124.314 78.76 126.132 73.2902 123.258 72.3982C120.437 68.4106 115.07 69.1124 112.971 73.3426Z" fill="#012851"/>
<path id="Vector_160" d="M119.585 77.94C119.585 77.94 120.93 78.1498 121.317 80.2289C121.704 82.308 121.258 85.2528 121.934 85.2528C122.61 85.2528 122.164 83.5279 123.049 82.1375C123.482 81.4488 125.169 78.2023 124.184 75.1329C123.174 71.9913 119.467 69.0399 117.007 69.945C114.619 70.8239 119.585 77.94 119.585 77.94Z" fill="#012851"/>
<path id="Vector_161" d="M119.598 79.3697C119.598 79.3697 119.88 77.6578 121.094 77.966C122.694 78.3727 121.612 82.4655 119.972 81.626" fill="#FFD5B0"/>
<path id="Vector_162" d="M118.227 75.1002C118.227 75.1002 110.82 77.3106 109.632 71.965C109.632 71.965 109.435 70.7385 109.809 70.5942C110.183 70.4499 114.205 70.6008 117.394 69.8334" fill="#012851"/>
</g>
<path id="Vector_163" d="M132.746 98.0283C132.746 98.0283 134.104 105.708 134.55 109.749C134.741 111.467 134.412 111.323 134.327 111.618C134.045 112.615 131.329 113.415 129.905 111.946C128.718 108.883 126.618 100.514 126.618 100.514" fill="#FFD5B0"/>
<path id="Vector_164" d="M125.417 96.8416C125.417 99.4716 126.165 104.64 126.165 104.64C127.432 105.178 129.223 105.073 130.804 104.81C132.693 104.482 134.557 103.866 134.557 103.866C134.557 103.866 134.275 100.888 133.599 98.1336C133.054 95.9299 132.136 93.9099 131.808 93.3589C131.316 92.5129 130.778 91.8242 130.246 91.2602L125.417 96.8416Z" fill="#9FDEF7"/>
<path id="Vector_165" d="M129.223 108.771C129.223 108.771 132.798 107.872 133.258 108.049C133.717 108.226 134.511 108.653 134.596 110.128C134.688 111.604 134.261 119.481 132.792 126.4C132.792 126.4 131.808 126.243 130.699 126.23C130.699 126.23 130.902 122.905 130.312 119.212C129.721 115.52 129.912 111.958 129.912 111.958" fill="#FFD5B0"/>
<path id="Vector_166" d="M126.907 88.9322C126.907 88.9322 130.279 89.9488 131.224 91.3525C132.149 92.7233 133.599 98.141 133.599 98.141L129.853 96.5275" fill="#9FDEF7"/>
<path id="Vector_167" d="M129.164 129.53C130.476 129.202 132.884 129.005 134.701 129.851C136.833 130.835 137.161 134.665 137.161 134.665H136.243C136.243 134.665 136.059 131.956 134.432 130.802C133.494 130.133 130.869 130.113 129.78 130.304C129 130.441 128.081 130.953 127.589 132.534C127.097 134.114 127.136 134.665 127.136 134.665H126.277C126.277 134.665 126.402 130.225 129.164 129.53Z" fill="#2D287C"/>
<path id="Vector_168" d="M130.712 125.732C130.712 125.732 130.752 126.605 130.246 127.202C129.964 127.53 129.735 127.602 129.538 127.851C129.341 128.1 128.855 128.782 128.481 129.051C128.107 129.32 128.009 129.451 128.383 129.635C128.757 129.819 129.459 129.274 129.662 129.137C129.866 128.999 130.194 128.966 130.332 129.051C130.509 129.156 130.437 130.114 129.931 130.284C129.931 130.284 130.345 130.999 130.542 131.032C130.738 131.065 130.929 130.848 131.021 130.868C131.112 130.894 131.237 131.058 131.401 131.078C131.559 131.091 131.683 130.868 131.946 130.894C132.208 130.921 132.156 131.019 132.411 131.071C132.667 131.124 132.864 130.862 133.002 130.875C133.146 130.881 133.264 130.986 133.409 130.907C133.553 130.829 133.789 129.543 133.835 129.051C133.881 128.559 132.917 126.657 133.035 125.188" fill="#FFD5B0"/>
<path id="Vector_169" d="M91.2355 98.278C91.2355 98.278 89.7199 95.1166 88.6767 94.382C88.6767 94.382 88.3159 94.441 88.3618 94.887C88.4077 95.333 89.0441 95.8643 89.0769 96.2775C89.1097 96.6907 88.8342 96.6383 88.4865 96.5595C88.1453 96.4874 85.5997 95.11 85.3504 95.2346C85.0945 95.3658 85.3635 95.6216 85.5406 95.7659C85.7178 95.9036 87.0824 96.7366 87.0824 96.7366C87.0824 96.7366 84.6352 95.4314 84.4581 95.8971C84.3465 96.1988 86.6166 97.3335 86.6166 97.3335C86.6166 97.3335 84.6615 96.2709 84.5762 96.671C84.504 97.0187 86.1574 97.7664 86.1574 97.7664C86.1574 97.7664 85.1338 97.2482 85.0617 97.4778C84.9698 97.773 86.387 98.5272 86.8003 98.7896C87.2137 99.052 88.2175 99.4717 88.6111 99.4521C89.0048 99.4389 89.3 99.393 89.5165 99.616" fill="#FFD5B0"/>
</g>
<g id="Group_48">
<path id="Vector_170" d="M142.174 161.962H121.717C120.917 161.962 120.274 161.313 120.274 160.519V135.59C120.274 134.79 120.923 134.147 121.717 134.147H142.174C142.975 134.147 143.617 134.797 143.617 135.59V160.519C143.617 161.319 142.968 161.962 142.174 161.962Z" fill="#009AEF"/>
<path id="Vector_171" d="M142.18 156.997H121.71C120.917 156.997 120.267 156.355 120.267 155.554V135.577C120.267 134.783 120.91 134.134 121.71 134.134H142.18C142.974 134.134 143.624 134.777 143.624 135.577V155.554C143.617 156.355 142.974 156.997 142.18 156.997Z" fill="#00B8F0"/>
<path id="Vector_172" d="M132.017 143.79C132.017 143.79 123.357 143.868 120.726 138.103C120.726 138.103 122.484 144.826 132.017 144.826C141.55 144.826 143.309 138.103 143.309 138.103C140.684 143.875 132.017 143.79 132.017 143.79Z" fill="#009AEF"/>
<path id="Vector_173" d="M133.284 145.73H130.371C130.154 145.73 129.984 145.553 129.984 145.343V143.336C129.984 143.119 130.161 142.949 130.371 142.949H133.284C133.501 142.949 133.671 143.126 133.671 143.336V145.343C133.678 145.559 133.501 145.73 133.284 145.73Z" fill="#0092D3"/>
</g>
</g>
<g id="Group_49">
<path id="Vector_174" opacity="0.6" d="M254.391 122.697C254.391 123.884 253.433 124.842 252.246 124.842C251.058 124.842 250.101 123.884 250.101 122.697C250.101 121.51 251.058 120.552 252.246 120.552C253.427 120.552 254.391 121.51 254.391 122.697Z" fill="#CAF5FF"/>
</g>
</g>
</svg>
