<svg width="18" height="18" viewBox="0 0 18 18" fill="none" xmlns="http://www.w3.org/2000/svg">
<path d="M16.2 3.78947H13.5V1.89474C13.5 0.843158 12.699 0 11.7 0H6.3C5.301 0 4.5 0.843158 4.5 1.89474V3.78947H1.8C0.801 3.78947 0 4.63263 0 5.68421V16.1053C0 17.1568 0.801 18 1.8 18H16.2C17.199 18 18 17.1568 18 16.1053V5.68421C18 4.63263 17.199 3.78947 16.2 3.78947ZM6.3 1.89474H11.7V3.78947H6.3V1.89474ZM16.2 16.1053H1.8V14.2105H16.2V16.1053ZM16.2 11.3684H1.8V5.68421H4.5V7.57895H6.3V5.68421H11.7V7.57895H13.5V5.68421H16.2V11.3684Z" fill="#121212"/>
</svg>
