<svg width="183" height="183" viewBox="0 0 183 183" fill="none" xmlns="http://www.w3.org/2000/svg">
<g id="Logo / White">
<g id="Group">
<path id="Vector" fill-rule="evenodd" clip-rule="evenodd" d="M52.2667 138.764V143.06L36.3218 164.186H52.2667V169.444H32.3137H29V165.149L44.945 144.022H29V138.764H48.9531H52.2667ZM70.0873 143.362C68.6656 143.362 67.3149 143.632 66.0354 144.171C64.7559 144.71 63.6076 145.491 62.596 146.514C61.5789 147.537 60.8024 148.692 60.2666 149.974C59.7307 151.261 59.4628 152.619 59.4628 154.049C59.4628 155.479 59.7307 156.849 60.2666 158.147C60.8024 159.445 61.5789 160.611 62.596 161.629C63.613 162.652 64.7613 163.427 66.0354 163.95C67.3149 164.478 68.6656 164.736 70.0873 164.736C71.509 164.736 72.8705 164.472 74.161 163.95C75.4515 163.422 76.6107 162.652 77.6223 161.629C78.6394 160.606 79.4104 159.445 79.9298 158.147C80.4548 156.849 80.7118 155.479 80.7118 154.049C80.7118 152.619 80.4493 151.261 79.9298 149.974C79.4049 148.687 78.6394 147.531 77.6223 146.514C76.6052 145.491 75.4515 144.71 74.161 144.171C72.8705 143.637 71.509 143.362 70.0873 143.362ZM70.0873 138.104C72.2636 138.104 74.3196 138.522 76.2498 139.353C78.1801 140.183 79.8642 141.327 81.3023 142.768C82.7404 144.215 83.8723 145.909 84.7035 147.851C85.5292 149.792 85.9447 151.86 85.9447 154.049C85.9447 156.238 85.5292 158.306 84.7035 160.248C83.8778 162.19 82.7404 163.884 81.3023 165.33C79.8642 166.777 78.1801 167.915 76.2498 168.751C74.3196 169.582 72.2636 170 70.0873 170C67.911 170 65.855 169.582 63.9247 168.751C61.9945 167.921 60.3103 166.777 58.8722 165.33C57.4341 163.884 56.3022 162.19 55.4711 160.248C54.6454 158.306 54.2298 156.238 54.2298 154.049C54.2298 151.86 54.6454 149.792 55.4711 147.851C56.2967 145.909 57.4341 144.215 58.8722 142.768C60.3103 141.322 61.9945 140.183 63.9247 139.353C65.855 138.522 67.9055 138.104 70.0873 138.104ZM103.984 143.362C102.562 143.362 101.212 143.632 99.9321 144.171C98.6526 144.71 97.5043 145.491 96.4927 146.514C95.4756 147.537 94.6992 148.692 94.1633 149.974C93.6274 151.261 93.3595 152.619 93.3595 154.049C93.3595 155.479 93.6274 156.849 94.1633 158.147C94.6992 159.445 95.4756 160.611 96.4927 161.629C97.5098 162.652 98.6581 163.427 99.9321 163.95C101.212 164.478 102.562 164.736 103.984 164.736C105.406 164.736 106.767 164.472 108.058 163.95C109.348 163.422 110.507 162.652 111.519 161.629C112.536 160.606 113.307 159.445 113.827 158.147C114.352 156.849 114.609 155.479 114.609 154.049C114.609 152.619 114.346 151.261 113.827 149.974C113.302 148.687 112.536 147.531 111.519 146.514C110.502 145.491 109.348 144.71 108.058 144.171C106.767 143.637 105.406 143.362 103.984 143.362ZM103.984 138.104C106.16 138.104 108.216 138.522 110.147 139.353C112.077 140.183 113.761 141.327 115.199 142.768C116.637 144.215 117.769 145.909 118.6 147.851C119.426 149.792 119.841 151.86 119.841 154.049C119.841 156.238 119.426 158.306 118.6 160.248C117.775 162.19 116.637 163.884 115.199 165.33C113.761 166.777 112.077 167.915 110.147 168.751C108.216 169.582 106.16 170 103.984 170C101.808 170 99.7517 169.582 97.8214 168.751C95.8912 167.921 94.207 166.777 92.7689 165.33C91.3308 163.884 90.1989 162.19 89.3678 160.248C88.5421 158.306 88.1265 156.238 88.1265 154.049C88.1265 151.86 88.5421 149.792 89.3678 147.851C90.1935 145.909 91.3308 144.215 92.7689 142.768C94.207 141.322 95.8912 140.183 97.8214 139.353C99.7517 138.522 101.808 138.104 103.984 138.104ZM147.291 138.72H153V169.4H147.773V147.663L137.706 163.312L127.683 147.663V169.4H122.455V138.72H128.164L137.706 153.62L147.291 138.72Z" fill="url(#paint0_linear)"/>
<path id="Vector_2" fill-rule="evenodd" clip-rule="evenodd" d="M42.8889 109.381L52.6822 131.201H48.5921L46.9189 127.461L45.2456 123.72L40.8438 113.93L36.442 123.72H42.0851L43.7583 127.461H34.7687L33.0955 131.201H29.0054L38.7987 109.381H42.8889ZM57.948 109.409V131.201H54.2297V109.409H57.948ZM76.1732 117.203C76.1732 117.995 76.0638 118.748 75.8451 119.463C75.6264 120.178 75.3311 120.838 74.9483 121.443C74.5655 122.048 74.1008 122.593 73.5539 123.082C73.0071 123.572 72.4002 123.973 71.7385 124.281L76.1677 131.201H71.7385L67.8015 125.057H65.2588L66.779 121.317H68.3921C69.5076 121.317 70.4699 120.91 71.2737 120.101C71.6456 119.705 71.9354 119.26 72.1432 118.759C72.351 118.259 72.4549 117.742 72.4549 117.203C72.4549 116.664 72.351 116.141 72.1432 115.646C71.9354 115.145 71.6456 114.711 71.2737 114.337C70.4699 113.528 69.5076 113.121 68.3921 113.121H63.9902V115.178V121.322V125.062V131.206H60.2719V125.062V115.178V109.381H68.3921C69.4638 109.381 70.4754 109.59 71.4159 110.003C72.3564 110.421 73.1766 110.982 73.882 111.686C74.5819 112.39 75.1397 113.22 75.5553 114.166C75.9654 115.112 76.1732 116.125 76.1732 117.203ZM86.2727 109.381C87.3445 109.381 88.3615 109.59 89.3075 110.003C90.259 110.421 91.0847 110.982 91.7846 111.686C92.4845 112.39 93.0422 113.22 93.4578 114.166C93.8734 115.112 94.0757 116.125 94.0757 117.208C94.0757 118.286 93.8679 119.309 93.4578 120.261C93.0422 121.218 92.4845 122.048 91.7846 122.752C91.0847 123.456 90.2535 124.017 89.3075 124.435C88.3561 124.853 87.3445 125.057 86.2727 125.057H83.1723L84.6925 121.317H86.2727C87.3882 121.317 88.3506 120.91 89.1544 120.101C89.9582 119.293 90.3629 118.325 90.3629 117.203C90.3629 116.059 89.9582 115.101 89.1544 114.337C88.3506 113.528 87.3882 113.121 86.2727 113.121H81.9037V131.201H78.1854V109.381H86.2727ZM106.915 112.654C105.903 112.654 104.941 112.846 104.033 113.231C103.125 113.616 102.311 114.172 101.583 114.898C100.862 115.624 100.309 116.444 99.9266 117.362C99.5438 118.275 99.3524 119.243 99.3524 120.261C99.3524 121.278 99.5438 122.252 99.9266 123.176C100.309 124.1 100.862 124.925 101.583 125.656C102.305 126.382 103.12 126.933 104.033 127.307C104.941 127.681 105.903 127.868 106.915 127.868C107.926 127.868 108.894 127.681 109.813 127.307C110.732 126.933 111.552 126.382 112.279 125.656C113.001 124.93 113.548 124.105 113.919 123.176C114.291 122.252 114.477 121.278 114.477 120.261C114.477 119.243 114.291 118.275 113.919 117.362C113.548 116.449 113.001 115.63 112.279 114.898C111.557 114.172 110.737 113.616 109.813 113.231C108.894 112.846 107.926 112.654 106.915 112.654ZM106.915 108.914C108.462 108.914 109.928 109.211 111.3 109.805C112.673 110.399 113.87 111.207 114.893 112.236C115.915 113.264 116.719 114.469 117.31 115.85C117.9 117.23 118.195 118.704 118.195 120.261C118.195 121.817 117.9 123.291 117.31 124.672C116.719 126.052 115.915 127.257 114.893 128.286C113.87 129.314 112.673 130.123 111.3 130.717C109.928 131.311 108.462 131.608 106.915 131.608C105.367 131.608 103.902 131.311 102.529 130.717C101.157 130.123 99.9594 129.314 98.9368 128.286C97.9143 127.257 97.1105 126.052 96.52 124.672C95.9294 123.291 95.6341 121.817 95.6341 120.261C95.6341 118.704 95.9294 117.23 96.52 115.85C97.1105 114.469 97.9143 113.264 98.9368 112.236C99.9594 111.207 101.157 110.399 102.529 109.805C103.902 109.211 105.367 108.914 106.915 108.914ZM135.95 117.203C135.95 117.995 135.841 118.748 135.622 119.463C135.404 120.178 135.108 120.838 134.726 121.443C134.343 122.048 133.878 122.593 133.331 123.082C132.784 123.572 132.177 123.973 131.516 124.281L135.945 131.201H131.516L127.579 125.057H125.036L126.556 121.317H128.169C129.285 121.317 130.247 120.91 131.051 120.101C131.423 119.705 131.713 119.26 131.92 118.759C132.128 118.259 132.232 117.742 132.232 117.203C132.232 116.664 132.128 116.141 131.92 115.646C131.713 115.145 131.423 114.711 131.051 114.337C130.247 113.528 129.285 113.121 128.169 113.121H123.767V115.178V121.322V125.062V131.206H120.049V125.062V115.178V109.381H128.169C129.241 109.381 130.253 109.59 131.193 110.003C132.134 110.421 132.954 110.982 133.659 111.686C134.359 112.39 134.917 113.22 135.332 114.166C135.748 115.112 135.95 116.125 135.95 117.203ZM153 109.381V113.121H146.646V131.201H142.928V113.121H136.541V109.381H142.928H146.646H153Z" fill="#FDFDFD"/>
<g id="Group_2">
<path id="Vector_3" fill-rule="evenodd" clip-rule="evenodd" d="M30.8533 35.2163C30.733 36.1404 30.8588 36.9434 31.597 37.5375L63.4377 63.1576L51.4024 35.1833L30.8533 35.2163Z" fill="url(#paint1_linear)"/>
<path id="Vector_4" fill-rule="evenodd" clip-rule="evenodd" d="M66.5053 87.4128L78.2562 80.213H141.703L151.184 102.401H60.813C59.4624 102.445 59.0304 102.209 58.418 101.812L58.5273 101.284L66.5053 87.4128Z" fill="#D1D2D4"/>
<path id="Vector_5" fill-rule="evenodd" clip-rule="evenodd" d="M96.5084 35.1065L116.883 35.2111L119.343 31.8174L114.121 14.4201C113.465 12.2365 111.54 12 107.833 12H50.4944C48.9798 12 47.7713 13.0945 46.8636 14.2221C45.6497 15.7182 44.4686 17.1812 43.2601 18.6443C39.6403 23.017 36.0149 27.9122 32.4716 32.1804C31.6842 33.1265 31.0389 34.0615 30.853 35.2221L96.5084 35.1065Z" fill="#FDFDFD"/>
<path id="Vector_6" fill-rule="evenodd" clip-rule="evenodd" d="M65.6905 65.3857L49.8604 81.3034L58.4179 101.814L121.35 38.5115L114.641 16.153L65.6905 65.3912V65.3857Z" fill="url(#paint2_linear)"/>
</g>
</g>
</g>
<defs>
<linearGradient id="paint0_linear" x1="91.0005" y1="126.304" x2="91.0005" y2="181.813" gradientUnits="userSpaceOnUse">
<stop stop-color="#00A8E1"/>
<stop offset="1" stop-color="#0A4E8D"/>
</linearGradient>
<linearGradient id="paint1_linear" x1="47.1241" y1="22.8256" x2="47.1241" y2="75.6704" gradientUnits="userSpaceOnUse">
<stop stop-color="#00A8E1"/>
<stop offset="1" stop-color="#0A4E8D"/>
</linearGradient>
<linearGradient id="paint2_linear" x1="85.6053" y1="-67.0641" x2="85.6053" y2="185.033" gradientUnits="userSpaceOnUse">
<stop stop-color="#00A8E1"/>
<stop offset="1" stop-color="#0A4E8D"/>
</linearGradient>
</defs>
</svg>
